<?xml version="1.0" encoding="UTF-8" standalone="no"?>
<!-- Created with Inkscape (http://www.inkscape.org/) -->

<svg
   xmlns:dc="http://purl.org/dc/elements/1.1/"
   xmlns:cc="http://creativecommons.org/ns#"
   xmlns:rdf="http://www.w3.org/1999/02/22-rdf-syntax-ns#"
   xmlns:svg="http://www.w3.org/2000/svg"
   xmlns="http://www.w3.org/2000/svg"
   xmlns:xlink="http://www.w3.org/1999/xlink"
   xmlns:sodipodi="http://sodipodi.sourceforge.net/DTD/sodipodi-0.dtd"
   xmlns:inkscape="http://www.inkscape.org/namespaces/inkscape"
   width="210mm"
   height="297mm"
   viewBox="0 0 210 297"
   version="1.1"
   id="svg8"
   inkscape:version="0.92pre2 r"
   sodipodi:docname="CavernDeepBack.svg">
  <defs
     id="defs2">
    <linearGradient
       x2="244.4844"
       x1="71.7646"
       id="SVGID_1_"
       gradientUnits="userSpaceOnUse">
      <stop
         id="stop10732"
         stop-color="#9e9e9e"
         offset="0" />
      <stop
         id="stop10734"
         stop-color="#dbdbdb"
         offset="1" />
    </linearGradient>
    <linearGradient
       x2="93.3252"
       x1="222.9248"
       id="SVGID_2_"
       gradientUnits="userSpaceOnUse">
      <stop
         id="stop10737"
         stop-color="#adadad"
         offset="0" />
      <stop
         id="stop10739"
         stop-color="#ccc"
         offset="1" />
    </linearGradient>
    <linearGradient
       x2="158.125"
       x1="218.125"
       id="light-northeast_3_"
       gradientUnits="userSpaceOnUse">
      <stop
         id="stop10742"
         stop-color="#ccc"
         offset="0" />
      <stop
         id="stop10744"
         stop-color="#f2f2f2"
         offset="1" />
    </linearGradient>
    <linearGradient
       x2="98.125"
       x1="158.125"
       id="light-southwest_3_"
       gradientUnits="userSpaceOnUse">
      <stop
         id="stop10747"
         stop-color="#ccc"
         offset="0" />
      <stop
         id="stop10749"
         stop-color="#f2f2f2"
         offset="1" />
    </linearGradient>
    <linearGradient
       y2="179.2364"
       y1="154.0483"
       x2="237.2312"
       x1="235.9111"
       id="light-west_1_"
       gradientUnits="userSpaceOnUse">
      <stop
         id="stop10752"
         stop-color="#545454"
         offset="0" />
      <stop
         id="stop10754"
         stop-color="#d6d6d6"
         offset="1" />
    </linearGradient>
    <linearGradient
       y2="77.2851"
       y1="82.9648"
       x2="143.5156"
       x1="172.7354"
       id="dark-north_1_"
       gradientUnits="userSpaceOnUse">
      <stop
         id="stop10757"
         stop-color="#545454"
         offset="0" />
      <stop
         id="stop10759"
         stop-color="#d6d6d6"
         offset="1" />
    </linearGradient>
    <linearGradient
       y2="178.2501"
       y1="152.6968"
       x2="78.7175"
       x1="80.5044"
       id="dark-east_1_"
       gradientUnits="userSpaceOnUse">
      <stop
         id="stop10762"
         stop-color="#545454"
         offset="0" />
      <stop
         id="stop10764"
         stop-color="#d6d6d6"
         offset="1" />
    </linearGradient>
    <linearGradient
       y2="245.2496"
       y1="227.001"
       x2="183.1939"
       x1="133.0562"
       id="dark-south_1_"
       gradientUnits="userSpaceOnUse">
      <stop
         id="stop10767"
         stop-color="#545454"
         offset="0" />
      <stop
         id="stop10769"
         stop-color="#d6d6d6"
         offset="1" />
    </linearGradient>
    <radialGradient
       r="32.4004"
       id="SVGID_3_"
       gradientUnits="userSpaceOnUse"
       cy="158.125"
       cx="158.125">
      <stop
         id="stop10772"
         offset=".1963" />
      <stop
         id="stop10774"
         stop-color="#bababa"
         offset="1" />
    </radialGradient>
    <radialGradient
       r="18"
       id="SVGID_4_"
       gradientUnits="userSpaceOnUse"
       cy="158.125"
       cx="158.125">
      <stop
         id="stop10777"
         stop-color="#7d7d7d"
         offset="0" />
      <stop
         id="stop10779"
         offset="1" />
    </radialGradient>
    <pattern
       patternUnits="userSpaceOnUse"
       viewBox="-15 -15 1700 1800"
       height="36"
       width="34"
       y="0"
       x="0"
       id="ThumbsUp">
      <path
         id="path12389"
         d="m0 848.9057c0-32.79 26.5814-59.371 59.3707-59.371l185.724 0c32.789 0 59.371 26.5811 59.371 59.371l0 579.105c0 32.7899-26.582 59.37-59.371 59.37l-185.724 0c-32.7893 0-59.3707-26.5801-59.3707-59.37zm867.206-848.483c89.45-7.31733 168.447 67.8533 178.567 154.76c18.25 93.412-12.1 187.411-58.7349 267.74c-24.835 55.204-62.136 113.96-48.687 176.84c46.812 12.947 105.142-1.59601 156.292 3.26898c83.64 1.948 169.32-3.62897 251.13 16.287c54.9601 25.792 90.9801 84.905 105.34 142.28c-3.5 52.644-84.51 95.832-30.02 149.36c47.38 46.553 21.64 103.302-22.49 140.412c-40.67 54.73 50.39 112.71 8.46997 168.84c-30.4301 42.42-90.6899 73.95-75.17 135.35c7.1001 61.6901-53.36 101.55-97.1899 133.04c-77.1801 38.53-167.56 28.5-251.255 30.49c-140.11-4.42004-281.42-6.18994-418.52-38.51c-65.784-12.46-131.88-23.51-197.46-36.9l-1.935-622.477c55.352 7.86603 99.96-31.753 129.24-74.413c64.804-87.312 99.96-191.1 146.391-288.1c43.382-65.348 127.94-96.117 153.269-175.12c36.043-83.668 39.88-176.1 49.535-265.38c-4.06201-11.536 31.4969-18.048 23.2209-17.7693z"
         stroke-width="0"
         stroke="none"
         fill="black" />
    </pattern>
  </defs>
  <sodipodi:namedview
     id="base"
     pagecolor="#ffffff"
     bordercolor="#666666"
     borderopacity="1.0"
     inkscape:pageopacity="0.0"
     inkscape:pageshadow="2"
     inkscape:zoom="0.7"
     inkscape:cx="-48.571429"
     inkscape:cy="527.5434"
     inkscape:document-units="mm"
     inkscape:current-layer="layer1"
     showgrid="false"
     inkscape:window-width="1617"
     inkscape:window-height="949"
     inkscape:window-x="195"
     inkscape:window-y="67"
     inkscape:window-maximized="0"
     inkscape:snap-text-baseline="false" />
  <metadata
     id="metadata5">
    <rdf:RDF>
      <cc:Work
         rdf:about="">
        <dc:format>image/svg+xml</dc:format>
        <dc:type
           rdf:resource="http://purl.org/dc/dcmitype/StillImage" />
        <dc:title></dc:title>
      </cc:Work>
    </rdf:RDF>
  </metadata>
  <g
     inkscape:groupmode="layer"
     id="layer3"
     inkscape:label="Layer 0" />
  <g
     inkscape:label="Layer 1"
     inkscape:groupmode="layer"
     id="layer1">
    <g
       style=""
       id="g11035">
      <rect
         y="6.7142854"
         x="10.583333"
         height="48.380955"
         width="191.25594"
         id="rect112"
         style="opacity:1;fill:#000000;stroke:#1a1a1a;stroke-width:0.26458332;stroke-opacity:1" />
      <rect
         y="55.095238"
         x="10.583333"
         height="234.34523"
         width="8.3154764"
         id="rect114"
         style="opacity:1;fill:#000000;stroke:#1a1a1a;stroke-width:0.26458332;stroke-opacity:1" />
      <rect
         y="281.44183"
         x="18.895308"
         height="8.0021515"
         width="175.2291"
         id="rect116"
         style="opacity:1;fill:#000000;stroke:#1a1a1a;stroke-width:0.2575798;stroke-opacity:1" />
      <rect
         y="55.095242"
         x="193.52379"
         height="234.34525"
         width="8.3154764"
         id="rect114-3"
         style="opacity:1;fill:#000000;stroke:#1a1a1a;stroke-width:0.26458332;stroke-opacity:1" />
      <g
         transform="matrix(0.08504464,0,0,0.06803571,133.80355,6.7142854)"
         id="layer2"
         inkscape:label="Vector"
         style="display:inline;opacity:1">
        <g
           id="stripes">
          <path
             inkscape:connector-curvature="0"
             id="bluestripe"
             d="M 0,700 307,0 h 60 L 60,700 Z"
             style="opacity:1;fill:#006699;fill-opacity:1;fill-rule:nonzero;stroke:none;stroke-width:4;stroke-linecap:butt;stroke-linejoin:round;stroke-miterlimit:4;stroke-dasharray:none;stroke-opacity:1" />
          <path
             inkscape:connector-curvature="0"
             id="whitestripe"
             d="M 60,700 367,0 h 54 L 114,700 Z"
             style="opacity:1;fill:#ffffff;fill-opacity:1;fill-rule:nonzero;stroke:none;stroke-width:4;stroke-linecap:butt;stroke-linejoin:round;stroke-miterlimit:4;stroke-dasharray:none;stroke-opacity:1" />
          <path
             inkscape:connector-curvature="0"
             id="orangestripe"
             d="M 114,700 421,0 H 800 L 493,700 Z"
             style="opacity:1;fill:#ff6633;fill-opacity:1;fill-rule:nonzero;stroke:none;stroke-width:4;stroke-linecap:butt;stroke-linejoin:round;stroke-miterlimit:4;stroke-dasharray:none;stroke-opacity:1" />
        </g>
        <g
           id="g4698"
           transform="translate(0.1018982)">
          <g
             id="g4430">
            <circle
               r="134.31343"
               cy="227.98338"
               cx="402.94028"
               style="opacity:1;fill:#ffffff;fill-opacity:1;fill-rule:nonzero;stroke:#006699;stroke-width:7.19999981;stroke-linecap:butt;stroke-linejoin:miter;stroke-miterlimit:4;stroke-dasharray:none;stroke-opacity:1"
               id="path4038"
               transform="matrix(0.6935047,0,0,0.693506,170.57499,195.53196)" />
            <circle
               r="134.31343"
               cy="227.98338"
               cx="402.94028"
               style="display:inline;opacity:1;fill:#ffffff;fill-opacity:1;fill-rule:nonzero;stroke:#006699;stroke-width:9.30000019;stroke-linecap:butt;stroke-linejoin:miter;stroke-miterlimit:4;stroke-dasharray:none;stroke-opacity:1"
               id="path4040"
               transform="matrix(0.42901,0,0,0.42901,277.17845,256.14191)" />
          </g>
          <g
             id="g4362">
            <g
               id="g4082">
              <path
                 inkscape:connector-curvature="0"
                 sodipodi:nodetypes="czszccc"
                 id="path4043"
                 d="m 410.1095,326.94659 c 13.25782,6.01519 0.71609,33.57539 7.97502,48.61382 7.25891,15.03845 31.67111,12.86733 31.6711,19.91272 10e-6,-7.04539 24.41219,-4.87427 31.67111,-19.91272 7.25893,-15.03843 -5.2828,-42.59863 7.97502,-48.61382 h -39.64613 z"
                 style="display:inline;fill:#ffffff;fill-opacity:1;fill-rule:nonzero;stroke:#0c2465;stroke-width:1.29999995;stroke-linecap:butt;stroke-linejoin:round;stroke-miterlimit:4;stroke-dasharray:none;stroke-opacity:1" />
              <path
                 inkscape:connector-curvature="0"
                 sodipodi:nodetypes="ccccc"
                 id="path4045"
                 d="m 441.62991,349.47313 h 5.93044 v 42.84313 l -5.93044,-2.26481 z"
                 style="display:inline;fill:#ff6633;fill-opacity:1;fill-rule:nonzero;stroke:none;stroke-width:2;stroke-linecap:butt;stroke-linejoin:round;stroke-miterlimit:4;stroke-opacity:1" />
              <path
                 inkscape:connector-curvature="0"
                 sodipodi:nodetypes="ccccc"
                 id="path4047"
                 d="m 431.25811,349.94697 h 5.93044 v 38.99295 l -5.93044,-1.75524 z"
                 style="display:inline;fill:#ff6633;fill-opacity:1;fill-rule:nonzero;stroke:none;stroke-width:2;stroke-linecap:butt;stroke-linejoin:round;stroke-miterlimit:4;stroke-opacity:1" />
              <path
                 inkscape:connector-curvature="0"
                 sodipodi:nodetypes="ccccc"
                 id="path4049"
                 d="m 420.57043,349.47313 h 5.93043 v 34.85965 l -5.93043,-4.64286 z"
                 style="display:inline;fill:#ff6633;fill-opacity:1;fill-rule:nonzero;stroke:none;stroke-width:2;stroke-linecap:butt;stroke-linejoin:round;stroke-miterlimit:4;stroke-opacity:1" />
              <path
                 inkscape:connector-curvature="0"
                 sodipodi:nodetypes="ccccc"
                 id="path4051"
                 d="m 452.37307,349.47313 h 5.93044 v 40.57832 l -5.93044,2.26481 z"
                 style="display:inline;fill:#ff6633;fill-opacity:1;fill-rule:nonzero;stroke:none;stroke-width:2;stroke-linecap:butt;stroke-linejoin:round;stroke-miterlimit:4;stroke-opacity:1" />
              <path
                 inkscape:connector-curvature="0"
                 sodipodi:nodetypes="ccccc"
                 id="path4053"
                 d="m 462.84735,349.47313 h 5.93044 v 37.23771 l -5.93044,2.09495 z"
                 style="display:inline;fill:#ff6633;fill-opacity:1;fill-rule:nonzero;stroke:none;stroke-width:2;stroke-linecap:butt;stroke-linejoin:round;stroke-miterlimit:4;stroke-opacity:1" />
              <path
                 inkscape:connector-curvature="0"
                 sodipodi:nodetypes="ccccc"
                 id="path4055"
                 d="m 473.53504,349.47313 h 5.93044 v 30.33003 l -5.93044,4.92597 z"
                 style="display:inline;fill:#ff6633;fill-opacity:1;fill-rule:nonzero;stroke:none;stroke-width:2;stroke-linecap:butt;stroke-linejoin:round;stroke-miterlimit:4;stroke-opacity:1" />
              <path
                 inkscape:connector-curvature="0"
                 sodipodi:nodetypes="ccccc"
                 id="path4057"
                 d="m 416.17292,350.54538 h 67.17329 c -2.59621,-21.77566 6.05554,-23.59879 6.05554,-23.59879 H 410.1095 c 0,0 9.08064,3.82879 6.06342,23.59879 z"
                 style="fill:#006699;fill-opacity:1;fill-rule:nonzero;stroke:none;stroke-width:2;stroke-linecap:butt;stroke-linejoin:round;stroke-miterlimit:4;stroke-dasharray:none;stroke-opacity:1" />
              <path
                 inkscape:connector-curvature="0"
                 sodipodi:nodetypes="czszccc"
                 id="path4059"
                 d="m 410.1095,326.94659 c 13.25782,6.01519 0.71609,33.57539 7.97502,48.61382 7.25891,15.03845 31.67111,12.86733 31.6711,19.91272 10e-6,-7.04539 24.41219,-4.87427 31.67111,-19.91272 7.25893,-15.03843 -5.2828,-42.59863 7.97502,-48.61382 h -39.64613 z"
                 style="display:inline;fill:none;fill-opacity:1;fill-rule:nonzero;stroke:#006699;stroke-width:1.89999998;stroke-linecap:butt;stroke-linejoin:round;stroke-miterlimit:4;stroke-dasharray:none;stroke-opacity:1" />
            </g>
          </g>
          <g
             id="g4670">
            <path
               inkscape:connector-curvature="0"
               transform="rotate(-142.68158)"
               style="font-style:normal;font-variant:normal;font-weight:normal;font-stretch:normal;font-size:22px;line-height:125%;font-family:'Arial Black';-inkscape-font-specification:'Arial Black,';text-align:start;writing-mode:lr-tb;text-anchor:start;fill:#006699;fill-opacity:1;stroke:none;stroke-width:1px;stroke-linecap:butt;stroke-linejoin:miter;stroke-opacity:1"
               d="m -574.93982,-90.753548 h 4.85547 v 9.388672 c -2e-5,0.930995 -0.14683,1.811854 -0.44043,2.642578 -0.28647,0.823571 -0.74123,1.546878 -1.36426,2.169922 -0.6159,0.615887 -1.26401,1.049154 -1.94433,1.299805 -0.94533,0.350911 -2.08042,0.526367 -3.40528,0.526367 -0.76628,0 -1.60417,-0.05371 -2.51367,-0.161133 -0.90235,-0.107422 -1.65788,-0.318684 -2.2666,-0.633789 -0.60873,-0.322265 -1.16732,-0.777017 -1.67578,-1.364258 -0.50131,-0.587237 -0.84506,-1.192379 -1.03125,-1.815429 -0.30079,-1.0026 -0.45118,-1.89062 -0.45117,-2.664063 v -9.388672 h 4.85546 v 9.614258 c 0,0.85938 0.23633,1.532557 0.70899,2.019531 0.47981,0.479822 1.14224,0.71973 1.9873,0.719727 0.83788,3e-6 1.49316,-0.236325 1.96582,-0.708984 0.47981,-0.479814 0.71972,-1.156571 0.71973,-2.030274 v -9.614258"
               id="text4093" />
            <path
               inkscape:connector-curvature="0"
               transform="rotate(-133.21626)"
               style="font-style:normal;font-variant:normal;font-weight:normal;font-stretch:normal;font-size:21.99999619px;line-height:125%;font-family:'Arial Black';-inkscape-font-specification:'Arial Black,';text-align:start;writing-mode:lr-tb;text-anchor:start;display:inline;fill:#006699;fill-opacity:1;stroke:none;stroke-width:1px;stroke-linecap:butt;stroke-linejoin:miter;stroke-opacity:1"
               d="m -571.74005,3.4463261 h 4.54394 l 5.92969,8.7119129 V 3.4463261 h 4.58691 V 19.19437 h -4.58691 l -5.89746,-8.647459 v 8.647459 h -4.57617 V 3.4463261"
               id="text4108" />
            <path
               inkscape:connector-curvature="0"
               transform="rotate(-123.91412)"
               style="font-style:normal;font-variant:normal;font-weight:normal;font-stretch:normal;font-size:21.99999619px;line-height:125%;font-family:'Arial Black';-inkscape-font-specification:'Arial Black,';text-align:start;writing-mode:lr-tb;text-anchor:start;display:inline;fill:#006699;fill-opacity:1;stroke:none;stroke-width:1px;stroke-linecap:butt;stroke-linejoin:miter;stroke-opacity:1"
               d="m -543.08044,93.821505 h 4.87695 v 15.748045 h -4.87695 V 93.821505"
               id="text4112" />
            <path
               inkscape:connector-curvature="0"
               transform="rotate(-111.77199)"
               style="font-style:normal;font-variant:normal;font-weight:normal;font-stretch:normal;font-size:22px;line-height:125%;font-family:'Arial Black';-inkscape-font-specification:'Arial Black,';text-align:start;writing-mode:lr-tb;text-anchor:start;display:inline;fill:#006699;fill-opacity:1;stroke:none;stroke-width:1px;stroke-linecap:butt;stroke-linejoin:miter;stroke-opacity:1"
               d="m -501.77679,203.90207 h 14.79199 v 3.88867 h -4.96289 v 11.85938 h -4.86621 v -11.85938 h -4.96289 v -3.88867"
               id="text4120" />
            <path
               inkscape:connector-curvature="0"
               transform="rotate(-97.859496)"
               style="font-style:normal;font-variant:normal;font-weight:normal;font-stretch:normal;font-size:22px;line-height:125%;font-family:'Arial Black';-inkscape-font-specification:'Arial Black,';text-align:start;writing-mode:lr-tb;text-anchor:start;display:inline;fill:#006699;fill-opacity:1;stroke:none;stroke-width:1px;stroke-linecap:butt;stroke-linejoin:miter;stroke-opacity:1"
               d="m -419.06247,315.02454 h 13.04102 v 3.3623 h -8.16407 v 2.50293 h 7.57325 v 3.21191 h -7.57325 v 3.1045 h 8.40039 v 3.5664 h -13.27734 v -15.74804"
               id="text4124" />
            <path
               inkscape:connector-curvature="0"
               transform="rotate(-87.277952)"
               style="font-style:normal;font-variant:normal;font-weight:normal;font-stretch:normal;font-size:22px;line-height:125%;font-family:'Arial Black';-inkscape-font-specification:'Arial Black,';text-align:start;writing-mode:lr-tb;text-anchor:start;display:inline;fill:#006699;fill-opacity:1;stroke:none;stroke-width:1px;stroke-linecap:butt;stroke-linejoin:miter;stroke-opacity:1"
               d="m -335.84821,383.83112 h 7.2295 c 1.42512,10e-6 2.57453,0.19337 3.44824,0.58007 0.88084,0.38674 1.60773,0.94175 2.18066,1.66504 0.5729,0.72332 0.98827,1.56479 1.2461,2.52442 0.25779,0.95964 0.3867,1.97657 0.38672,3.05078 -2e-5,1.68295 -0.19338,2.98991 -0.58008,3.9209 -0.37958,0.92383 -0.90952,1.70085 -1.58985,2.33105 -0.68035,0.62305 -1.41082,1.03841 -2.1914,1.2461 -1.06707,0.28645 -2.03387,0.42968 -2.90039,0.42968 h -7.2295 v -15.74804 m 4.86622,3.5664 v 8.60449 h 1.19238 c 1.01692,1e-5 1.74022,-0.11099 2.16992,-0.333 0.42968,-0.22917 0.76627,-0.62305 1.00977,-1.18164 0.24347,-0.56575 0.36522,-1.47884 0.36523,-2.73926 -1e-5,-1.66861 -0.27215,-2.81086 -0.81641,-3.42676 -0.54428,-0.61587 -1.44662,-0.92382 -2.70703,-0.92383 h -1.21386"
               id="text4128" />
            <path
               inkscape:connector-curvature="0"
               transform="rotate(-65.202276)"
               style="font-style:normal;font-variant:normal;font-weight:normal;font-stretch:normal;font-size:22px;line-height:125%;font-family:'Arial Black';-inkscape-font-specification:'Arial Black,';text-align:start;writing-mode:lr-tb;text-anchor:start;display:inline;fill:#006699;fill-opacity:1;stroke:none;stroke-width:1px;stroke-linecap:butt;stroke-linejoin:miter;stroke-opacity:1"
               d="m -140.22617,484.70547 4.62989,-0.29003 c 0.10025,0.75195 0.30435,1.32487 0.6123,1.71875 0.5013,0.63737 1.21744,0.95605 2.14844,0.95605 0.69465,0 1.22818,-0.16113 1.60059,-0.4834 0.37954,-0.32942 0.56932,-0.70898 0.56933,-1.13867 -1e-5,-0.4082 -0.17905,-0.77343 -0.53711,-1.0957 -0.35808,-0.32226 -1.18881,-0.62662 -2.49219,-0.91309 -2.13412,-0.47981 -3.65592,-1.11718 -4.56543,-1.91211 -0.91666,-0.79491 -1.375,-1.80826 -1.375,-3.04004 0,-0.80923 0.23275,-1.57192 0.69825,-2.28808 0.47265,-0.7233 1.17805,-1.28905 2.11621,-1.69727 0.94531,-0.41535 2.23795,-0.62303 3.87793,-0.62305 2.01236,2e-5 3.54491,0.376 4.59765,1.12793 1.05989,0.74481 1.69009,1.93361 1.89063,3.56641 l -4.58692,0.26855 c -0.12175,-0.70897 -0.37956,-1.22459 -0.77343,-1.54687 -0.38673,-0.32225 -0.92384,-0.48339 -1.61133,-0.4834 -0.56576,10e-6 -0.99187,0.12176 -1.27832,0.36524 -0.28647,0.23634 -0.42969,0.52638 -0.42969,0.87011 0,0.25067 0.11816,0.47625 0.35449,0.67676 0.22916,0.20769 0.77343,0.40105 1.63282,0.58008 2.12694,0.45834 3.64875,0.92384 4.56543,1.39648 0.92381,0.46551 1.59341,1.04558 2.00878,1.74024 0.42252,0.69467 0.63378,1.47168 0.63379,2.33105 -1e-5,1.00977 -0.27931,1.94076 -0.83789,2.79297 -0.5586,0.85222 -1.3392,1.50033 -2.34179,1.94434 -1.00262,0.43685 -2.26662,0.65527 -3.792,0.65527 -2.67839,0 -4.5332,-0.51562 -5.56445,-1.54687 -1.03125,-1.03125 -1.61491,-2.3418 -1.75098,-3.93165"
               id="text4132" />
            <path
               inkscape:connector-curvature="0"
               transform="rotate(-51.593565)"
               style="font-style:normal;font-variant:normal;font-weight:normal;font-stretch:normal;font-size:22px;line-height:125%;font-family:'Arial Black';-inkscape-font-specification:'Arial Black,';text-align:start;writing-mode:lr-tb;text-anchor:start;display:inline;fill:#006699;fill-opacity:1;stroke:none;stroke-width:1px;stroke-linecap:butt;stroke-linejoin:miter;stroke-opacity:1"
               d="M -6.9351091,489.61819 H 7.856883 v 3.88868 H 2.8939924 v 11.85937 h -4.8662109 v -11.85937 h -4.9628906 v -3.88868"
               id="text4136" />
            <path
               inkscape:connector-curvature="0"
               transform="rotate(-41.966339)"
               style="font-style:normal;font-variant:normal;font-weight:normal;font-stretch:normal;font-size:21.99999619px;line-height:125%;font-family:'Arial Black';-inkscape-font-specification:'Arial Black,';text-align:start;writing-mode:lr-tb;text-anchor:start;display:inline;fill:#006699;fill-opacity:1;stroke:none;stroke-width:1px;stroke-linecap:butt;stroke-linejoin:miter;stroke-opacity:1"
               d="m 102.2287,494.29834 h -5.542963 l -0.762696,2.59961 h -4.973632 l 5.918945,-15.74804 h 5.306636 l 5.91895,15.74804 h -5.0918 l -0.77344,-2.59961 m -1.0205,-3.40527 -1.740237,-5.66113 -1.729492,5.66113 h 3.469729"
               id="text4140" />
            <path
               inkscape:connector-curvature="0"
               transform="rotate(-28.288581)"
               style="font-style:normal;font-variant:normal;font-weight:normal;font-stretch:normal;font-size:22.00000191px;line-height:125%;font-family:'Arial Black';-inkscape-font-specification:'Arial Black,';text-align:start;writing-mode:lr-tb;text-anchor:start;display:inline;fill:#006699;fill-opacity:1;stroke:none;stroke-width:1px;stroke-linecap:butt;stroke-linejoin:miter;stroke-opacity:1"
               d="m 220.64497,442.17169 h 14.792 v 3.88867 h -4.96289 v 11.85938 h -4.86622 v -11.85938 h -4.96289 v -3.88867"
               id="text4144" />
            <path
               inkscape:connector-curvature="0"
               transform="rotate(-14.621264)"
               style="font-style:normal;font-variant:normal;font-weight:normal;font-stretch:normal;font-size:22.00000191px;line-height:125%;font-family:'Arial Black';-inkscape-font-specification:'Arial Black,';text-align:start;writing-mode:lr-tb;text-anchor:start;display:inline;fill:#006699;fill-opacity:1;stroke:none;stroke-width:1px;stroke-linecap:butt;stroke-linejoin:miter;stroke-opacity:1"
               d="m 338.03613,372.90872 h 13.04102 v 3.36231 h -8.16406 v 2.50293 h 7.57324 v 3.21191 h -7.57324 v 3.10449 h 8.40039 v 3.56641 h -13.27735 v -15.74805"
               id="text4148" />
            <path
               inkscape:connector-curvature="0"
               transform="rotate(-4.1308815)"
               style="font-style:normal;font-variant:normal;font-weight:normal;font-stretch:normal;font-size:22px;line-height:125%;font-family:'Arial Black';-inkscape-font-specification:'Arial Black,';text-align:start;writing-mode:lr-tb;text-anchor:start;display:inline;fill:#006699;fill-opacity:1;stroke:none;stroke-width:1px;stroke-linecap:butt;stroke-linejoin:miter;stroke-opacity:1"
               d="m 417.17331,313.22958 4.62988,-0.29004 c 0.10026,0.75196 0.30436,1.32488 0.61231,1.71875 0.50129,0.63738 1.21744,0.95606 2.14843,0.95606 0.69466,0 1.22819,-0.16113 1.60059,-0.4834 0.37955,-0.32942 0.56933,-0.70898 0.56934,-1.13867 -10e-6,-0.4082 -0.17905,-0.77343 -0.53711,-1.0957 -0.35809,-0.32226 -1.18881,-0.62663 -2.49219,-0.91309 -2.13412,-0.47981 -3.65593,-1.11718 -4.56543,-1.91211 -0.91667,-0.79491 -1.375,-1.80826 -1.375,-3.04004 0,-0.80923 0.23275,-1.57193 0.69824,-2.28808 0.47266,-0.7233 1.17806,-1.28905 2.11621,-1.69727 0.94531,-0.41535 2.23795,-0.62303 3.87793,-0.62305 2.01236,2e-5 3.54491,0.376 4.59766,1.12793 1.05988,0.74481 1.69009,1.93361 1.89062,3.56641 l -4.58691,0.26855 c -0.12175,-0.70897 -0.37957,-1.22459 -0.77344,-1.54687 -0.38673,-0.32225 -0.92383,-0.48339 -1.61133,-0.4834 -0.56576,10e-6 -0.99186,0.12176 -1.27832,0.36523 -0.28646,0.23635 -0.42969,0.52638 -0.42968,0.87012 -10e-6,0.25066 0.11815,0.47625 0.35449,0.67676 0.22916,0.20769 0.77343,0.40105 1.63281,0.58008 2.12694,0.45834 3.64875,0.92384 4.56543,1.39648 0.92382,0.46551 1.59341,1.04558 2.00879,1.74024 0.42251,0.69466 0.63377,1.47168 0.63379,2.33105 -2e-5,1.00977 -0.27931,1.94076 -0.83789,2.79297 -0.55861,0.85222 -1.33921,1.50033 -2.3418,1.94434 -1.00261,0.43684 -2.26661,0.65527 -3.79199,0.65527 -2.67839,0 -4.53321,-0.51563 -5.56445,-1.54688 -1.03126,-1.03124 -1.61491,-2.34179 -1.75098,-3.93164"
               id="text4152" />
            <path
               inkscape:connector-curvature="0"
               transform="rotate(21.647793)"
               style="font-style:normal;font-variant:normal;font-weight:normal;font-stretch:normal;font-size:22px;line-height:125%;font-family:'Arial Black';-inkscape-font-specification:'Arial Black,';text-align:start;writing-mode:lr-tb;text-anchor:start;display:inline;fill:#006699;fill-opacity:1;stroke:none;stroke-width:1px;stroke-linecap:butt;stroke-linejoin:miter;stroke-opacity:1"
               d="m 544.2038,89.428078 4.26464,1.289062 c -0.28647,1.195968 -0.73764,2.19499 -1.35351,2.997071 -0.6159,0.802084 -1.38218,1.407227 -2.29883,1.815429 -0.90952,0.408203 -2.06967,0.612305 -3.48047,0.612305 -1.71159,0 -3.11166,-0.24707 -4.20019,-0.741211 -1.08139,-0.501301 -2.01596,-1.378579 -2.80371,-2.631836 -0.78777,-1.253251 -1.18165,-2.857416 -1.18164,-4.8125 -10e-6,-2.60676 0.69107,-4.608386 2.07324,-6.004883 1.38932,-1.40363 3.35155,-2.105453 5.88672,-2.105469 1.98371,1.6e-5 3.54132,0.401058 4.67285,1.203125 1.13866,0.802098 1.98371,2.033867 2.53515,3.695313 l -4.29687,0.956055 c -0.1504,-0.479807 -0.30796,-0.830719 -0.47266,-1.052735 -0.27214,-0.372384 -0.60515,-0.658842 -0.99902,-0.859375 -0.39389,-0.200508 -0.83432,-0.300769 -1.32129,-0.300781 -1.10287,1.2e-5 -1.94792,0.444022 -2.53516,1.332031 -0.44401,0.658865 -0.66602,1.693695 -0.66601,3.104492 -1e-5,1.747402 0.26497,2.946946 0.79492,3.598633 0.52994,0.644535 1.27473,0.966801 2.23438,0.966797 0.93098,4e-6 1.6328,-0.261389 2.10546,-0.78418 0.47981,-0.522781 0.82714,-1.281895 1.042,-2.277343"
               id="text4156" />
            <path
               inkscape:connector-curvature="0"
               transform="rotate(33.785336)"
               style="font-style:normal;font-variant:normal;font-weight:normal;font-stretch:normal;font-size:22px;line-height:125%;font-family:'Arial Black';-inkscape-font-specification:'Arial Black,';text-align:start;writing-mode:lr-tb;text-anchor:start;display:inline;fill:#006699;fill-opacity:1;stroke:none;stroke-width:1px;stroke-linecap:butt;stroke-linejoin:miter;stroke-opacity:1"
               d="m 557.78906,-30.896297 c 0,-2.570954 0.71615,-4.572579 2.14844,-6.004883 1.43229,-1.432277 3.42675,-2.148422 5.9834,-2.148438 2.62108,1.6e-5 4.64061,0.705419 6.05859,2.116211 1.41795,1.403659 2.12694,3.373058 2.12696,5.908203 -2e-5,1.840501 -0.31155,3.351567 -0.93457,4.533203 -0.61591,1.174482 -1.51109,2.091148 -2.68555,2.75 -1.16733,0.651693 -2.62469,0.977539 -4.37207,0.977539 -1.77605,0 -3.24773,-0.282877 -4.41504,-0.848632 -1.16016,-0.565754 -2.10189,-1.460936 -2.8252,-2.685547 -0.72331,-1.224605 -1.08496,-2.757156 -1.08496,-4.597656 m 4.86621,0.02148 c 0,1.58985 0.29362,2.732101 0.88086,3.426758 0.5944,0.694665 1.40006,1.041995 2.41699,1.041992 1.04557,3e-6 1.85481,-0.340166 2.42774,-1.020508 0.5729,-0.680333 0.85936,-1.901361 0.85937,-3.663086 -10e-6,-1.482412 -0.30079,-2.563791 -0.90234,-3.24414 -0.59441,-0.687488 -1.40366,-1.031238 -2.42773,-1.03125 -0.98113,1.2e-5 -1.76889,0.347342 -2.36328,1.041992 -0.59441,0.694672 -0.89161,1.844085 -0.89161,3.448242"
               id="text4287" />
            <path
               inkscape:connector-curvature="0"
               transform="rotate(43.215347)"
               style="font-style:normal;font-variant:normal;font-weight:normal;font-stretch:normal;font-size:21.99999619px;line-height:125%;font-family:'Arial Black';-inkscape-font-specification:'Arial Black,';text-align:start;writing-mode:lr-tb;text-anchor:start;display:inline;fill:#006699;fill-opacity:1;stroke:none;stroke-width:1px;stroke-linecap:butt;stroke-linejoin:miter;stroke-opacity:1"
               d="m 573.54376,-120.10996 h -5.54297 l -0.76269,2.59961 h -4.97363 l 5.91894,-15.74805 h 5.30664 l 5.91894,15.74805 h -5.09179 l -0.77344,-2.59961 m -1.02051,-3.40527 -1.74023,-5.66114 -1.72949,5.66114 h 3.46972"
               id="text4291" />
            <path
               inkscape:connector-curvature="0"
               transform="rotate(57.127501)"
               style="font-style:normal;font-variant:normal;font-weight:normal;font-stretch:normal;font-size:22px;line-height:125%;font-family:'Arial Black';-inkscape-font-specification:'Arial Black,';text-align:start;writing-mode:lr-tb;text-anchor:start;display:inline;fill:#006699;fill-opacity:1;stroke:none;stroke-width:1px;stroke-linecap:butt;stroke-linejoin:miter;stroke-opacity:1"
               d="m 533.37579,-258.45421 4.62989,-0.29004 c 0.10025,0.75196 0.30435,1.32488 0.6123,1.71875 0.5013,0.63738 1.21744,0.95606 2.14844,0.95606 0.69465,0 1.22818,-0.16113 1.60058,-0.4834 0.37955,-0.32942 0.56933,-0.70898 0.56934,-1.13867 -10e-6,-0.4082 -0.17905,-0.77344 -0.53711,-1.09571 -0.35808,-0.32226 -1.18881,-0.62662 -2.49219,-0.91308 -2.13412,-0.47981 -3.65592,-1.11718 -4.56543,-1.91211 -0.91666,-0.79491 -1.375,-1.80826 -1.375,-3.04004 0,-0.80923 0.23275,-1.57193 0.69825,-2.28809 0.47265,-0.72329 1.17805,-1.28904 2.11621,-1.69726 0.9453,-0.41535 2.23795,-0.62303 3.87793,-0.62305 2.01236,2e-5 3.54491,0.37599 4.59765,1.12793 1.05988,0.74481 1.69009,1.93361 1.89063,3.56641 l -4.58692,0.26855 c -0.12175,-0.70897 -0.37956,-1.2246 -0.77343,-1.54687 -0.38673,-0.32226 -0.92384,-0.48339 -1.61133,-0.4834 -0.56576,1e-5 -0.99187,0.12176 -1.27832,0.36523 -0.28647,0.23634 -0.4297,0.52638 -0.42969,0.87012 -10e-6,0.25066 0.11816,0.47625 0.35449,0.67676 0.22916,0.20769 0.77343,0.40105 1.63282,0.58008 2.12694,0.45834 3.64875,0.92383 4.56542,1.39648 0.92382,0.4655 1.59342,1.04558 2.00879,1.74023 0.42251,0.69467 0.63378,1.47169 0.63379,2.33106 -1e-5,1.00977 -0.27931,1.94076 -0.83789,2.79297 -0.55861,0.85221 -1.3392,1.50032 -2.34179,1.94433 -1.00262,0.43685 -2.26662,0.65528 -3.792,0.65528 -2.67839,0 -4.5332,-0.51563 -5.56445,-1.54688 -1.03125,-1.03125 -1.61491,-2.34179 -1.75098,-3.93164"
               id="text4295" />
            <path
               inkscape:connector-curvature="0"
               transform="rotate(71.781599)"
               style="font-style:normal;font-variant:normal;font-weight:normal;font-stretch:normal;font-size:22px;line-height:125%;font-family:'Arial Black';-inkscape-font-specification:'Arial Black,';text-align:start;writing-mode:lr-tb;text-anchor:start;display:inline;fill:#006699;fill-opacity:1;stroke:none;stroke-width:1px;stroke-linecap:butt;stroke-linejoin:miter;stroke-opacity:1"
               d="m 466.17355,-399.83627 h 14.792 v 3.88867 h -4.96289 v 11.85937 h -4.86622 v -11.85937 h -4.96289 v -3.88867"
               id="text4299" />
            <path
               inkscape:connector-curvature="0"
               transform="rotate(90)"
               style="font-style:normal;font-variant:normal;font-weight:normal;font-stretch:normal;font-size:22px;line-height:125%;font-family:'Arial Black';-inkscape-font-specification:'Arial Black,';text-align:start;writing-mode:lr-tb;text-anchor:start;display:inline;fill:#006699;fill-opacity:1;stroke:none;stroke-width:1px;stroke-linecap:butt;stroke-linejoin:miter;stroke-opacity:1"
               d="m 352.70386,-522.53754 v -3.27636 h 7.51953 v 6.71386 c -1.43947,0.98112 -2.71421,1.65072 -3.82422,2.00879 -1.10288,0.35091 -2.41342,0.52637 -3.93164,0.52637 -1.86915,0 -3.39454,-0.31869 -4.57617,-0.95606 -1.17449,-0.63736 -2.08757,-1.58626 -2.73926,-2.84667 -0.64453,-1.26042 -0.9668,-2.70703 -0.9668,-4.33985 0,-1.71874 0.35449,-3.2119 1.06348,-4.47949 0.70898,-1.27473 1.74739,-2.24152 3.11523,-2.90039 1.06705,-0.50845 2.50293,-0.76268 4.30762,-0.7627 1.74022,2e-5 3.04003,0.15757 3.89941,0.47266 0.86653,0.31512 1.58267,0.80568 2.14844,1.47168 0.5729,0.65887 1.00259,1.49676 1.28906,2.51367 l -4.69433,0.83789 c -0.19337,-0.59439 -0.5228,-1.04914 -0.98828,-1.36426 -0.45835,-0.31509 -1.04559,-0.47264 -1.76172,-0.47265 -1.06707,10e-6 -1.91928,0.37241 -2.55664,1.11719 -0.63022,0.73764 -0.94532,1.90853 -0.94531,3.51269 -10e-6,1.70443 0.31867,2.92188 0.95605,3.65234 0.64452,0.73048 1.53971,1.09571 2.68555,1.09571 0.54426,0 1.06346,-0.0788 1.55761,-0.23633 0.49413,-0.15755 1.05989,-0.4261 1.69727,-0.80566 v -1.48243 h -3.25488"
               id="text4303" />
            <path
               inkscape:connector-curvature="0"
               transform="rotate(104.48893)"
               style="font-style:normal;font-variant:normal;font-weight:normal;font-stretch:normal;font-size:22px;line-height:125%;font-family:'Arial Black';-inkscape-font-specification:'Arial Black,';text-align:start;writing-mode:lr-tb;text-anchor:start;display:inline;fill:#006699;fill-opacity:1;stroke:none;stroke-width:1px;stroke-linecap:butt;stroke-linejoin:miter;stroke-opacity:1"
               d="m 231.76518,-606.84967 h 4.85547 v 9.38867 c -2e-5,0.931 -0.14683,1.81185 -0.44043,2.64258 -0.28647,0.82357 -0.74122,1.54688 -1.36426,2.16992 -0.6159,0.61589 -1.26401,1.04916 -1.94433,1.29981 -0.94533,0.35091 -2.08042,0.52636 -3.40528,0.52636 -0.76628,0 -1.60417,-0.0537 -2.51367,-0.16113 -0.90235,-0.10742 -1.65788,-0.31868 -2.2666,-0.63379 -0.60873,-0.32226 -1.16732,-0.77702 -1.67578,-1.36426 -0.50131,-0.58723 -0.84505,-1.19238 -1.03125,-1.81543 -0.30078,-1.0026 -0.45117,-1.89062 -0.45117,-2.66406 v -9.38867 h 4.85547 v 9.61426 c -1e-5,0.85938 0.23632,1.53255 0.70898,2.01953 0.47981,0.47982 1.14225,0.71973 1.98731,0.71973 0.83788,0 1.49315,-0.23633 1.96582,-0.70899 0.4798,-0.47981 0.71971,-1.15657 0.71972,-2.03027 v -9.61426"
               id="text4307" />
            <path
               inkscape:connector-curvature="0"
               transform="rotate(118.47208)"
               style="font-style:normal;font-variant:normal;font-weight:normal;font-stretch:normal;font-size:21.99999619px;line-height:125%;font-family:'Arial Black';-inkscape-font-specification:'Arial Black,';text-align:start;writing-mode:lr-tb;text-anchor:start;display:inline;fill:#006699;fill-opacity:1;stroke:none;stroke-width:1px;stroke-linecap:butt;stroke-linejoin:miter;stroke-opacity:1"
               d="m 97.891973,-633.80096 h -5.542967 l -0.762696,2.59961 h -4.973631 l 5.918944,-15.74805 h 5.30664 l 5.918947,15.74805 h -5.091799 l -0.773438,-2.59961 m -1.020507,-3.40528 -1.740234,-5.66113 -1.729492,5.66113 h 3.469726"
               id="text4311" />
            <path
               inkscape:connector-curvature="0"
               transform="rotate(131.6595)"
               style="font-style:normal;font-variant:normal;font-weight:normal;font-stretch:normal;font-size:21.99999619px;line-height:125%;font-family:'Arial Black';-inkscape-font-specification:'Arial Black,';text-align:start;writing-mode:lr-tb;text-anchor:start;display:inline;fill:#006699;fill-opacity:1;stroke:none;stroke-width:1px;stroke-linecap:butt;stroke-linejoin:miter;stroke-opacity:1"
               d="m -42.628411,-638.30981 v -15.74805 h 8.110351 c 1.503894,2e-5 2.653307,0.12892 3.448241,0.38672 0.794908,0.25783 1.435858,0.73764 1.922851,1.43945 0.486964,0.69468 0.730453,1.54331 0.730469,2.5459 -1.6e-5,0.87371 -0.186214,1.62924 -0.558594,2.2666 -0.37241,0.63022 -0.884454,1.14226 -1.536132,1.53613 -0.415378,0.25066 -0.984713,0.45835 -1.708008,0.62305 0.580066,0.19337 1.002591,0.38673 1.267578,0.58008 0.179023,0.12891 0.436835,0.40463 0.773438,0.82715 0.343735,0.42253 0.572901,0.74837 0.687499,0.97754 l 2.352539,4.56543 h -5.499999 l -2.599609,-4.8125 c -0.329436,-0.62304 -0.623055,-1.02767 -0.880859,-1.21387 -0.350919,-0.24348 -0.74838,-0.36523 -1.192383,-0.36523 h -0.429687 v 6.3916 h -4.887695 m 4.887695,-9.36719 h 2.051757 c 0.221997,10e-6 0.651684,-0.0716 1.289063,-0.21484 0.322255,-0.0644 0.583648,-0.22916 0.784179,-0.49414 0.207671,-0.26497 0.311513,-0.56933 0.311524,-0.91309 -1.1e-5,-0.50845 -0.161144,-0.89875 -0.483399,-1.1709 -0.322276,-0.27212 -0.927418,-0.40819 -1.815429,-0.4082 h -2.137695 v 3.20117"
               id="text4315" />
            <path
               inkscape:connector-curvature="0"
               transform="rotate(142.83357)"
               style="font-style:normal;font-variant:normal;font-weight:normal;font-stretch:normal;font-size:22.00000381px;line-height:125%;font-family:'Arial Black';-inkscape-font-specification:'Arial Black,';text-align:start;writing-mode:lr-tb;text-anchor:start;display:inline;fill:#006699;fill-opacity:1;stroke:none;stroke-width:1px;stroke-linecap:butt;stroke-linejoin:miter;stroke-opacity:1"
               d="m -149.11649,-636.39856 h 7.2295 c 1.42512,10e-6 2.57453,0.19337 3.44824,0.58008 0.88085,0.38673 1.60773,0.94174 2.18067,1.66504 0.5729,0.72332 0.98826,1.56479 1.24609,2.52441 0.2578,0.95965 0.3867,1.97657 0.38672,3.05078 -2e-5,1.68295 -0.19338,2.98992 -0.58008,3.9209 -0.37957,0.92383 -0.90952,1.70085 -1.58984,2.33106 -0.68036,0.62304 -1.41082,1.03841 -2.19141,1.24609 -1.06707,0.28646 -2.03387,0.42969 -2.90039,0.42969 h -7.2295 v -15.74805 m 4.86622,3.5664 v 8.6045 h 1.19238 c 1.01692,0 1.74022,-0.111 2.16992,-0.33301 0.42968,-0.22916 0.76627,-0.62304 1.00977,-1.18164 0.24348,-0.56575 0.36522,-1.47884 0.36523,-2.73926 -1e-5,-1.66861 -0.27214,-2.81086 -0.8164,-3.42676 -0.54429,-0.61587 -1.44663,-0.92381 -2.70704,-0.92383 h -1.21386"
               id="text4319" />
            <path
               inkscape:connector-curvature="0"
               transform="rotate(10.822148)"
               style="font-style:normal;font-variant:normal;font-weight:normal;font-stretch:normal;font-size:18px;line-height:125%;font-family:'Arial Black';-inkscape-font-specification:'Arial Black,';text-align:start;writing-mode:lr-tb;text-anchor:start;display:inline;fill:#006699;fill-opacity:1;stroke:none;stroke-width:1px;stroke-linecap:butt;stroke-linejoin:miter;stroke-opacity:1"
               d="m 507.68805,333.11588 v 13.10449 h -3.62109 v -8.58692 c -0.58595,0.44532 -1.15431,0.80568 -1.70508,1.08106 -0.54493,0.2754 -1.23047,0.53907 -2.05664,0.79101 v -2.93554 c 1.21874,-0.39257 2.16503,-0.86425 2.83886,-1.41504 0.67383,-0.55077 1.20117,-1.23046 1.58204,-2.03906 h 2.96191"
               id="text4323" />
            <path
               inkscape:connector-curvature="0"
               transform="rotate(2.2178481)"
               style="font-style:normal;font-variant:normal;font-weight:normal;font-stretch:normal;font-size:18px;line-height:125%;font-family:'Arial Black';-inkscape-font-specification:'Arial Black,';text-align:start;writing-mode:lr-tb;text-anchor:start;display:inline;fill:#006699;fill-opacity:1;stroke:none;stroke-width:1px;stroke-linecap:butt;stroke-linejoin:miter;stroke-opacity:1"
               d="m 454.8309,406.1445 h 10.4502 v 2.41699 c -0.90822,0.82033 -1.667,1.70802 -2.27637,2.66309 -0.73829,1.16016 -1.3213,2.45215 -1.74902,3.87598 -0.33985,1.10742 -0.56837,2.41699 -0.68555,3.92871 h -3.56836 c 0.28125,-2.10352 0.72363,-3.86719 1.32715,-5.29102 0.60351,-1.42382 1.55859,-2.94726 2.86523,-4.57031 h -6.36328 v -3.02344"
               id="text4327" />
            <path
               inkscape:connector-curvature="0"
               transform="rotate(-4.9300143)"
               style="font-style:normal;font-variant:normal;font-weight:normal;font-stretch:normal;font-size:18px;line-height:125%;font-family:'Arial Black';-inkscape-font-specification:'Arial Black,';text-align:start;writing-mode:lr-tb;text-anchor:start;display:inline;fill:#006699;fill-opacity:1;stroke:none;stroke-width:1px;stroke-linecap:butt;stroke-linejoin:miter;stroke-opacity:1"
               d="m 413.26224,470.98077 3.55957,-0.44824 c 0.0937,0.49805 0.25195,0.84961 0.47461,1.05469 0.22265,0.20508 0.49511,0.30762 0.81738,0.30762 0.57421,0 1.02245,-0.29004 1.34473,-0.87012 0.23436,-0.42773 0.41015,-1.333 0.52734,-2.71582 -0.42774,0.43946 -0.86719,0.76172 -1.31836,0.9668 -0.45118,0.20508 -0.97266,0.30762 -1.56445,0.30761 -1.1543,1e-5 -2.12989,-0.41015 -2.92676,-1.23047 -0.79102,-0.8203 -1.18652,-1.85741 -1.18652,-3.11132 0,-0.85546 0.20214,-1.63476 0.60644,-2.33789 0.4043,-0.70312 0.96094,-1.23339 1.66992,-1.59082 0.70898,-0.36327 1.59961,-0.54491 2.67188,-0.54493 1.28905,2e-5 2.32323,0.22267 3.10254,0.66797 0.77929,0.43947 1.40038,1.14259 1.86328,2.10938 0.46874,0.96094 0.70311,2.23243 0.70312,3.81445 -1e-5,2.32618 -0.48926,4.03125 -1.46777,5.11523 -0.97852,1.07813 -2.33497,1.61719 -4.06934,1.61719 -1.02539,0 -1.83398,-0.11719 -2.42578,-0.35156 -0.5918,-0.24023 -1.08398,-0.58887 -1.47656,-1.0459 -0.39258,-0.45703 -0.69434,-1.02832 -0.90527,-1.71387 m 6.59179,-5.74804 c 0,-0.69726 -0.17578,-1.24218 -0.52734,-1.63477 -0.35157,-0.39843 -0.7793,-0.59764 -1.2832,-0.59765 -0.47462,10e-6 -0.87012,0.17872 -1.18653,0.53613 -0.31055,0.35743 -0.46582,0.89356 -0.46582,1.6084 0,0.72071 0.16113,1.27149 0.4834,1.65234 0.32812,0.38087 0.73535,0.5713 1.22168,0.57129 0.5039,10e-6 0.92285,-0.18456 1.25684,-0.55371 0.33397,-0.36913 0.50097,-0.89648 0.50097,-1.58203"
               id="text4335" />
            <path
               inkscape:connector-curvature="0"
               transform="rotate(-7.5890526)"
               style="font-style:normal;font-variant:normal;font-weight:normal;font-stretch:normal;font-size:18px;line-height:125%;font-family:'Arial Black';-inkscape-font-specification:'Arial Black,';text-align:start;writing-mode:lr-tb;text-anchor:start;display:inline;fill:#006699;fill-opacity:1;stroke:none;stroke-width:1px;stroke-linecap:butt;stroke-linejoin:miter;stroke-opacity:1"
               d="m 404.14673,486.48557 c 0,-2.44921 0.43945,-4.16308 1.31836,-5.14161 0.88476,-0.9785 2.22949,-1.46776 4.03418,-1.46777 0.86718,10e-6 1.57909,0.10841 2.13574,0.3252 0.55663,0.21095 1.01073,0.48927 1.3623,0.83496 0.35156,0.33985 0.62695,0.7002 0.82618,1.08105 0.20506,0.37501 0.36913,0.81446 0.49218,1.31836 0.24023,0.96095 0.36034,1.9629 0.36036,3.00586 -2e-5,2.33789 -0.39552,4.04883 -1.18653,5.13281 -0.79102,1.08399 -2.15333,1.62598 -4.08691,1.62598 -1.08399,0 -1.95997,-0.17285 -2.62793,-0.51856 -0.66797,-0.3457 -1.21582,-0.85253 -1.64356,-1.5205 -0.31054,-0.47461 -0.55371,-1.12207 -0.72949,-1.94239 -0.16992,-0.82616 -0.25488,-1.7373 -0.25488,-2.73339 m 3.55078,0.009 c 0,1.64063 0.14355,2.7627 0.43066,3.36622 0.29297,0.59765 0.71484,0.89648 1.26563,0.89648 0.36327,0 0.67675,-0.12597 0.94043,-0.37793 0.26952,-0.25781 0.46581,-0.66211 0.58887,-1.21289 0.12889,-0.55078 0.19335,-1.40918 0.19336,-2.5752 -1e-5,-1.71093 -0.1465,-2.85936 -0.43946,-3.44531 -0.28711,-0.59179 -0.72071,-0.88768 -1.30078,-0.88769 -0.5918,1e-5 -1.01954,0.30176 -1.2832,0.90527 -0.26368,0.59767 -0.39551,1.70802 -0.39551,3.33105"
               id="text4339" />
          </g>
        </g>
        <g
           id="g4349"
           transform="translate(0,-0.462948)">
          <circle
             r="29.533543"
             cy="123.7633"
             cx="394.78513"
             transform="matrix(0.3852567,-0.3852566,0.3852567,0.3852566,150.27454,362.3021)"
             id="path4039"
             style="display:inline;opacity:1;fill:none;fill-opacity:1;fill-rule:nonzero;stroke:#006699;stroke-width:40.5;stroke-linecap:butt;stroke-linejoin:miter;stroke-miterlimit:4;stroke-dasharray:none;stroke-opacity:1" />
          <circle
             r="29.533543"
             cy="123.7633"
             cx="394.78513"
             transform="matrix(0.3941489,-0.3941489,0.3941489,0.3941489,145.84915,364.89776)"
             id="path4017"
             style="display:inline;opacity:1;fill:none;fill-opacity:1;fill-rule:nonzero;stroke:#ffffff;stroke-width:22;stroke-linecap:butt;stroke-linejoin:miter;stroke-miterlimit:4;stroke-dasharray:none;stroke-opacity:1" />
          <path
             inkscape:connector-curvature="0"
             sodipodi:nodetypes="cccccccccccccccc"
             id="path4028"
             d="m 508.44661,430.19476 11.81293,12.53613 c 10.28044,14.54497 -22.79383,25.48015 -18.17765,21.07895 -0.12113,0.21535 1.83177,-6.51272 5.56759,-14.04919 -15.71663,6.73318 -36.90466,13.90677 -51.92189,8.81044 7.63473,22.119 28.34041,37.12471 28.34041,37.12471 l 9.02809,-13.87159 c 47.10547,6.41944 29.05116,-20.37001 70.91713,-15.58144 -4.26453,-45.01442 16.59389,-21.00863 15.96212,-75.34183 l 14.37303,-10.74028 c -10.1085,-17.53194 -37.67225,-26.63756 -43.59292,-25.27125 10.10851,21.9544 4.26453,38.38071 -1.89534,52.43785 6.7067,-3.60494 11.8459,-6.31782 11.8459,-6.31782 0.63178,15.63659 -9.03592,19.4023 -12.95152,21.00674 -7.58138,-5.68604 -16.42632,-16.90016 -16.42632,-16.90016 0,0 -15.14224,17.65531 -22.88156,25.07874 z"
             style="display:inline;opacity:1;fill:#ffffff;fill-opacity:1;fill-rule:nonzero;stroke:#006699;stroke-width:5;stroke-linecap:butt;stroke-linejoin:round;stroke-miterlimit:4;stroke-dasharray:none;stroke-opacity:1" />
          <path
             inkscape:connector-curvature="0"
             sodipodi:nodetypes="ccccc"
             id="path4054"
             d="m 315.73276,316.19279 18.24269,18.24269 95.47797,-89.94988 -16.34735,-16.97913 z"
             style="opacity:1;fill:#ffffff;fill-opacity:1;fill-rule:nonzero;stroke:#006699;stroke-width:5;stroke-linecap:butt;stroke-linejoin:miter;stroke-miterlimit:4;stroke-dasharray:none;stroke-opacity:1" />
        </g>
        <use
           x="0"
           y="0"
           xlink:href="#g4349"
           id="use4355"
           transform="matrix(-1,0,0,1,900.23575,-1.9855595e-6)"
           width="800"
           height="700" />
      </g>
    </g>
    <g
       id="g11531"
       transform="matrix(0.05529926,0,0,0.05489202,25.869516,62.213823)">
      <rect
         x="0.86330998"
         y="0.28632"
         width="744.09003"
         height="497.5"
         style="fill:#000000;fill-rule:evenodd;stroke-width:1.00000003pt"
         id="rect625" />
      <path
         d="m 509.73,357.38 c -14.3,14.3 0,28.6 14.3,21.45 11.92,-7.15 7.15,-28.6 -14.3,-21.45 z"
         style="fill:#ff0000;stroke:#ff0000;stroke-width:2.3835001"
         id="selection_to_path#3"
         inkscape:connector-curvature="0" />
      <path
         d="m 619.37,388.37 c -19.07,9.53 -11.92,30.98 7.15,28.6 16.68,-2.39 16.68,-33.37 -7.15,-28.6 z"
         style="fill:#ff0000;stroke:#ff0000;stroke-width:2.3835001"
         id="selection_to_path#2"
         inkscape:connector-curvature="0" />
      <path
         d="m 602.69,276.34 c -19.07,16.69 -4.77,35.75 11.91,28.6 14.3,-9.53 9.54,-35.75 -11.91,-28.6 z"
         style="fill:#ff0000;stroke:#ff0000;stroke-width:2.3835001"
         id="selection_to_path#1"
         inkscape:connector-curvature="0" />
      <path
         d="m 360.48,31.014 c -5.1,-3.942 -12.73,1.878 -7.98,7.583 4.69,5.891 28.77,35.953 22.26,41.61 -0.2,14.272 -30.76,57.563 -48.38,54.633 -23.5,0 -35.26,-14.69 -44.07,-17.63 -17.62,-5.87 -23.5,23.5 -35.25,2.94 5.88,-5.88 20.56,-20.564 23.5,-29.377 0,-5.875 -2.94,-14.688 0,-23.5 l 8.81,-23.501 c -7.34,1.469 -20.11,8.662 -21.73,14.826 -0.93,3.628 -0.3,-10.419 -7.64,-11.888 0,0 -0.74,2.937 -1.47,5.875 -0.73,2.937 -1.47,5.875 -1.47,5.875 0,0 -6.46,-2.497 -9.25,-0.738 -2.2,-2.938 0.44,-11.012 0.44,-11.012 -4.84,-1.615 -11.75,8.812 -11.75,8.812 -6.47,-7.934 -8.52,-12.777 -20.27,-15.715 2.49,4.403 5.58,27.466 5.58,27.466 v 26.438 l 17.63,35.249 c -2.94,-2.94 -8.82,-8.81 -14.69,-11.75 -17.63,-2.94 -38.19,23.5 -52.88,20.56 -11.75,0 -32.31,-35.25 -29.37,-46.997 2.93,-8.812 14.68,-14.688 23.5,-20.563 -8.82,-11.75 -11.75,-14.688 -26.44,-17.625 0,8.813 0,17.625 -5.88,26.438 -5.87,5.875 -17.62,8.813 -20.56,20.563 0,11.754 14.69,11.754 23.5,20.564 8.81,14.69 11.75,41.13 23.5,47 11.75,5.88 26.44,-5.87 38.19,-5.87 8.81,-2.94 17.63,5.87 26.44,8.81 0,0 5.87,58.75 5.87,58.75 -8.81,-5.88 -23.5,-20.56 -29.37,-5.88 -5.88,11.75 2.94,26.44 2.94,44.07 v 47 23.5 l 5.87,20.56 v 32.32 l 2.94,20.56 c 2.94,35.25 -32.32,32.31 -55.82,41.13 0,0 17.63,2.93 17.63,2.93 l -2.94,5.88 44.07,-2.94 c 0,0 17.62,-2.94 17.62,-2.94 v -17.62 l -5.87,-44.07 2.93,-41.12 2.94,-14.69 v -14.69 c 0,0 2.94,-49.94 2.94,-49.94 l 20.56,11.75 5.88,-14.68 8.81,47 v 17.62 l 5.87,20.57 v 52.87 c 0,0 -14.68,44.07 -14.68,44.07 0,0 49.94,8.81 49.94,8.81 v -5.88 c 0,0 20.56,2.94 20.56,2.94 -17.63,-17.62 -35.25,-14.69 -38.19,-26.44 -5.88,-8.81 -2.94,-23.5 0,-32.31 l 5.87,-49.94 c 0,-17.62 -8.81,-23.5 -8.81,-58.75 0,-41.13 5.88,-26.44 8.81,-44.07 2.94,-11.75 -5.87,-44.06 -23.5,-17.62 h -5.87 l 8.81,-29.38 2.94,-20.56 11.75,-23.5 c 14.69,0 38.19,8.81 52.88,5.88 20.56,-8.82 26.43,-32.32 38.18,-47.01 11.75,-17.622 20.57,-8.81 23.5,-35.247 0,0 -38.14,-47.417 -39.33,-48.009 z"
         style="fill:#ffffff;stroke:#000000;stroke-width:3.67199993;stroke-linecap:round;stroke-linejoin:round"
         id="path578"
         inkscape:connector-curvature="0" />
      <path
         d="m 497.81,235.82 c -9.53,0 -19.07,0 -26.22,4.77 -16.68,9.53 -9.53,30.99 2.39,40.52 11.91,11.92 26.21,14.3 40.52,16.68 l 33.37,11.92 c 0,-23.83 2.38,-66.74 -9.54,-85.8 -11.92,-21.46 -38.14,-16.69 -40.52,11.91 z"
         style="fill:#ff0000;stroke:#ff0000;stroke-width:2.3835001"
         id="selection_to_path"
         inkscape:connector-curvature="0" />
      <path
         d="m 95.867,39.709 a 1.4494,1.6565 0 1 0 -2.898,0 1.4494,1.6565 0 1 0 2.898,0 z"
         transform="matrix(2.9376,0,0,2.9376,-46.535,-36.414)"
         style="fill-rule:evenodd;stroke:#000000;stroke-width:1.25;stroke-linecap:round;stroke-linejoin:round"
         id="path580"
         inkscape:connector-curvature="0" />
      <path
         d="m 103.11,39.709 a 1.2423,1.4494 0 1 0 -2.48,0 1.2423,1.4494 0 1 0 2.48,0 z"
         transform="matrix(2.9376,0,0,2.9376,-46.535,-36.414)"
         style="fill-rule:evenodd;stroke:#000000;stroke-width:1.25;stroke-linecap:round;stroke-linejoin:round"
         id="path581"
         inkscape:connector-curvature="0" />
      <path
         d="m 239.95,91.184 c 0,0 6.69,-4.866 7.91,1.216"
         style="fill-rule:evenodd;stroke:#000000;stroke-width:3.67199993;stroke-linecap:round;stroke-linejoin:round"
         id="path582"
         inkscape:connector-curvature="0" />
      <path
         d="m 233.26,110.04 c 0.61,-0.61 9.73,-5.47 14.6,0"
         style="fill:none;stroke:#000000;stroke-width:3.67199993;stroke-linecap:round;stroke-linejoin:round"
         id="path583"
         inkscape:connector-curvature="0" />
      <path
         d="m 286.78,140.45 -10.34,10.34"
         style="fill:none;stroke:#000000;stroke-width:3.67199993;stroke-linecap:round;stroke-linejoin:round"
         id="path584"
         inkscape:connector-curvature="0" />
      <path
         d="m 302.6,147.14 c 0.61,0 17.03,4.87 17.03,4.87"
         style="fill:none;stroke:#000000;stroke-width:3.67199993;stroke-linecap:round;stroke-linejoin:round"
         id="path585"
         inkscape:connector-curvature="0" />
      <path
         d="m 329.36,154.44 h 4.26"
         style="fill:none;stroke:#000000;stroke-width:3.67199993;stroke-linecap:round;stroke-linejoin:round"
         id="path586"
         inkscape:connector-curvature="0" />
      <path
         d="m 194.33,138.02 5.47,-3.65"
         style="fill:none;stroke:#000000;stroke-width:3.67199993;stroke-linecap:round;stroke-linejoin:round"
         id="path587"
         inkscape:connector-curvature="0" />
      <path
         d="m 164.53,155.66 c 7.9,-6.69 13.99,-7.91 13.99,-7.91"
         style="fill:none;stroke:#000000;stroke-width:3.67199993;stroke-linecap:round;stroke-linejoin:round"
         id="path588"
         inkscape:connector-curvature="0" />
      <path
         d="m 115.26,96.05 c 0,0 6.69,-2.433 4.86,4.26"
         style="fill:none;stroke:#000000;stroke-width:3.67199993;stroke-linecap:round;stroke-linejoin:round"
         id="path589"
         inkscape:connector-curvature="0" />
      <path
         d="m 221.09,164.78 c 0,0 7.3,-10.34 12.17,-6.08"
         style="fill:none;stroke:#000000;stroke-width:3.67199993;stroke-linecap:round;stroke-linejoin:round"
         id="path590"
         inkscape:connector-curvature="0" />
      <path
         d="m 265.49,165.39 c -0.6,-0.61 -6.08,-10.95 -10.94,-6.08"
         style="fill:none;stroke:#000000;stroke-width:3.67199993;stroke-linecap:round;stroke-linejoin:round"
         id="path591"
         inkscape:connector-curvature="0" />
      <path
         d="m 238.12,166.61 c 0.61,0 7.91,-7.91 10.95,1.21"
         style="fill:none;stroke:#000000;stroke-width:3.67199993;stroke-linecap:round;stroke-linejoin:round"
         id="path592"
         inkscape:connector-curvature="0" />
      <path
         d="m 228.39,182.42 c 0,0 20.68,-14.6 25.55,-0.61"
         style="fill:none;stroke:#000000;stroke-width:3.67199993;stroke-linecap:round;stroke-linejoin:round"
         id="path593"
         inkscape:connector-curvature="0" />
      <path
         d="m 230.22,197.63 c 0.61,0 11.55,-16.43 21.29,-0.61"
         style="fill:none;stroke:#000000;stroke-width:3.67199993;stroke-linecap:round;stroke-linejoin:round"
         id="path594"
         inkscape:connector-curvature="0" />
      <path
         d="m 235.08,236.55 c 0,0 9.13,6.09 14.6,1.83"
         style="fill:none;stroke:#000000;stroke-width:3.67199993;stroke-linecap:round;stroke-linejoin:round"
         id="path595"
         inkscape:connector-curvature="0" />
      <path
         d="m 234.47,254.8 c 0,0 6.09,10.34 15.82,0.61"
         style="fill:none;stroke:#000000;stroke-width:3.67199993;stroke-linecap:round;stroke-linejoin:round"
         id="path596"
         inkscape:connector-curvature="0" />
      <path
         d="m 280.09,371.59 -3.65,33.45"
         style="fill:none;stroke:#000000;stroke-width:3.67199993;stroke-linecap:round;stroke-linejoin:round"
         id="path597"
         inkscape:connector-curvature="0" />
      <path
         d="M 207.1,378.88 210.75,402"
         style="fill:none;stroke:#000000;stroke-width:3.67199993;stroke-linecap:round;stroke-linejoin:round"
         id="path598"
         inkscape:connector-curvature="0" />
      <path
         d="m 407.34,92.706 -6.76,6.566 c 1.29,1.838 42.41,60.278 42.41,60.278 l -21.45,2.39 c 9.53,11.91 35.75,30.98 50.05,35.75 0,-14.3 -0.97,-44.92 -9.53,-57.21 -4.21,18.82 -6.42,18.39 -19.07,0 -9.53,-14.3 -26.63,-37.82 -35.65,-47.774 z"
         style="fill:#ffffff;stroke:#000000;stroke-width:3.67199993;stroke-linecap:round;stroke-linejoin:round"
         id="selection_to_path#4"
         inkscape:connector-curvature="0" />
    </g>
    <g
       id="g11675"
       transform="matrix(0.05538152,0,0,0.05430463,25.917256,98.231772)">
      <rect
         x="0"
         y="-1.5e-05"
         width="744.09003"
         height="496.06"
         style="fill:#000000;fill-rule:evenodd;stroke-width:1.00000003pt"
         id="rect657" />
      <g
         transform="translate(12.916,24.614)"
         id="g832">
        <path
           d="m 295.47,218.25 c -15.5,4.13 -23.77,15.5 -36.17,24.8 l -21.69,13.43 -25.83,15.5 c -6.2,3.1 -7.24,2.07 -11.37,3.1 -6.2,2.06 -14.47,8.26 -12.4,15.5 1.03,8.26 8.27,6.2 12.4,9.3 3.1,2.06 3.1,6.2 5.17,9.3 2.06,3.1 7.23,4.13 11.36,5.16 14.47,1.04 13.43,-9.3 18.6,-18.6 l 6.2,-10.33 c 5.16,-8.27 11.36,-11.36 18.6,-17.56 l 10.33,-10.34 25.83,-20.66 c 3.1,-3.1 12.4,-11.37 8.27,-16.53 -1.04,-1.04 -3.1,-2.07 -5.17,-2.07 z m -47.53,48.56 c -3.1,7.24 -17.57,17.57 -22.73,25.83 -2.07,3.1 -3.1,9.3 -8.27,8.27 -3.1,-1.03 -13.43,-10.33 -10.33,-15.5 3.1,-5.17 9.3,1.03 14.46,0 7.24,-2.07 17.57,-14.46 26.87,-18.6 z"
           style="fill:#ffffff;stroke:#000000;stroke-width:1.03320003"
           id="selection_to_path#6"
           inkscape:connector-curvature="0" />
        <path
           d="m 424.62,207.92 -6.2,2.06 c -3.1,1.04 -8.26,1.04 -8.26,6.2 0,5.17 13.43,14.47 17.56,17.57 l 31,26.86 c 8.26,6.2 16.53,11.37 23.76,18.6 9.3,9.3 3.1,13.43 16.53,25.83 3.1,3.1 7.24,6.2 11.37,5.17 10.33,-1.03 8.26,-13.43 9.3,-15.5 2.06,-3.1 5.16,-5.17 7.23,-8.27 4.13,-5.16 5.17,-17.56 1.03,-22.73 -2.06,-2.06 -6.2,-2.06 -9.3,-3.1 -8.26,-2.06 -8.26,-2.06 -15.49,-5.16 l -22.73,-11.37 -11.37,-8.26 -20.67,-11.37 c -5.16,-4.13 -8.26,-6.2 -13.43,-10.33 -4.13,-3.1 -5.16,-6.2 -10.33,-6.2 z m 86.79,65.09 c 0,4.13 -2.06,12.4 -6.2,14.47 -4.13,1.03 -7.23,-3.1 -9.3,-5.17 -6.19,-6.2 -12.39,-9.3 -13.43,-18.6 9.3,1.04 10.33,7.24 16.53,10.34 2.07,1.03 9.3,-1.04 12.4,-1.04 z"
           style="fill:#ffffff;stroke:#000000;stroke-width:1.03320003"
           id="selection_to_path#5"
           inkscape:connector-curvature="0" />
        <path
           d="m 366.76,240.98 c -6.2,1.04 -3.34,5.33 -6.44,6.36 -2.07,0.16 -2.26,-2.56 -5.12,-3.18 -2.87,-0.58 -2.58,2.86 -4.97,2.86 -2.35,-0.71 -4.14,-7.44 -6.2,-7.77 -2.57,-0.22 -4.02,5.71 -6.2,5.87 -2.31,0.16 -2.94,-6.6 -5.01,-6.6 -3.1,-1.04 -6.52,3.58 -9.62,0.48 -3.1,-4.14 -1.9,-15.58 -7.07,-16.62 -3.1,0 -4.13,5.17 -5.17,7.24 -1.03,7.23 -3.09,18.6 2.07,24.79 4.13,6.2 9.3,6.2 14.47,8.27 6.2,3.1 8.26,8.27 16.53,9.3 15.5,4.13 21.7,1.03 35.13,-4.13 5.16,-2.07 11.36,-5.17 14.46,-9.3 3.1,-4.14 3.1,-10.33 3.1,-15.5 v -12.4 l 1.04,-7.23 c 1.27,-3.74 -2.47,-4.54 -5.17,-1.04 -3.1,4.14 -1.03,13.44 -5.17,16.54 -3.1,1.03 -5.16,-2.07 -8.26,-1.04 -3.1,2.07 -2.62,8.74 -6.28,8.43 -2.54,1.11 -3.58,-5.33 -6.12,-5.33 z"
           style="fill:#ffffff;stroke:#000000;stroke-width:1.03320003"
           id="selection_to_path#4-3"
           inkscape:connector-curvature="0" />
        <path
           d="m 359.53,189.32 c 6.2,-1.03 6.2,3.1 7.23,8.27 0,3.1 1.03,4.13 1.03,7.23 0,2.06 0,6.2 -2.06,7.23 -2.07,1.03 -4.14,0 -6.2,0 -2.07,0 -5.17,0 -6.2,-1.03 -2.07,-1.04 -2.07,-4.14 -2.07,-6.2 0,-6.2 2.07,-12.4 8.27,-15.5 z M 330.6,157.29 c 11.36,-1.03 18.6,7.23 17.56,18.6 -2.06,11.36 -12.4,21.7 -23.76,19.63 -7.24,-1.03 -10.34,-8.27 -11.37,-14.46 -1.03,-11.37 7.23,-19.64 17.57,-23.77 z m 49.59,-2.07 c 9.3,1.04 21.7,7.24 21.7,17.57 0,8.27 -1.03,20.66 -12.4,20.66 -3.1,0 -6.2,-3.1 -9.3,-4.13 -4.13,-3.1 -9.3,-7.23 -11.36,-12.4 -4.14,-9.3 2.06,-19.63 11.36,-21.7 z m -85.76,10.34 c 2.07,4.13 3.1,9.3 3.1,13.43 -1.03,5.16 -6.2,11.36 -7.23,14.46 -2.07,5.17 1.03,17.57 6.2,20.67 8.27,4.13 16.53,-3.1 23.76,1.03 8.27,4.13 3.1,15.5 13.44,10.33 0,0 3.57,-3.18 5.16,-2.06 2.07,4.13 3.88,7.53 5.34,7.32 1.46,-0.21 2.57,-4.03 5.15,-3.51 2.07,0 3.98,5.89 6.04,5.89 3.1,1.03 4.85,-5.02 6.92,-5.02 2.07,-1.03 3.58,4.54 5.64,3.5 2.07,0 2.94,-3.02 5.01,-4.05 2.07,-1.03 4.77,2.23 6.84,0.16 2.06,-1.03 1.42,-6.36 3.49,-9.46 2.07,-3.1 9.3,-10.33 12.4,-12.4 9.3,-5.16 21.7,2.07 25.83,-7.23 6.2,-12.4 -3.1,-13.43 -7.23,-22.73 -2.07,-5.17 -1.03,-18.6 0,-23.77 h 2.07 c 3.1,11.37 -4.14,17.57 4.13,21.7 3.1,-8.26 0,-9.3 1.03,-16.53 l 1.04,-10.33 c 0,-5.17 -5.17,-24.8 -9.3,-28.93 -1.04,-2.07 -4.14,-3.1 -6.2,-4.14 -2.07,-3.09 -4.14,-5.16 -7.24,-7.23 -3.1,-2.06 -10.33,-3.1 -13.43,-5.16 -12.4,-4.137 -26.86,-6.204 -40.29,-5.171 l -9.3,2.067 c -8.27,1.033 -18.6,3.104 -25.84,8.264 -9.29,5.17 -19.63,16.53 -21.69,26.87 l -3.1,20.66 c -1.04,6.2 -5.17,19.63 1.03,23.77 7.23,5.16 7.23,-9.3 7.23,-12.4 z"
           style="fill:#ffffff;stroke:#000000;stroke-width:1.03320003"
           id="selection_to_path#3-5"
           inkscape:connector-curvature="0" />
        <path
           d="m 219.01,61.199 c -7.23,3.1 -4.13,7.233 -6.2,13.432 -2.07,5.167 -7.23,5.167 -8.27,10.333 -1.03,6.199 6.2,10.332 10.34,12.399 10.33,5.167 26.86,7.237 39.26,14.467 l 18.6,12.4 c 2.06,1.03 5.16,4.13 8.26,3.1 6.2,-1.04 9.3,-14.47 5.17,-19.63 L 272.74,99.429 256.2,87.03 c -5.16,-4.133 -11.36,-7.232 -16.53,-12.399 -6.2,-6.199 -10.33,-15.498 -20.66,-13.432 z"
           style="fill:#ffffff;stroke:#000000;stroke-width:1.03320003"
           id="selection_to_path#2-6"
           inkscape:connector-curvature="0" />
        <path
           d="m 485.58,56.033 c -8.26,3.1 -10.33,11.366 -14.46,18.598 -4.14,6.2 -14.47,20.665 -19.64,25.829 -5.16,5.17 -21.69,17.57 -23.76,21.7 -3.1,4.13 0,15.5 6.2,14.46 4.13,-1.03 12.4,-9.29 16.53,-11.36 9.3,-6.2 28.93,-18.6 39.27,-21.7 7.23,-2.06 19.63,-1.03 23.76,-8.264 6.2,-10.332 -5.17,-14.465 -8.27,-18.598 -5.16,-6.2 -1.03,-20.665 -14.46,-21.698 -2.07,0 -3.1,0 -5.17,1.033 z"
           style="fill:#ffffff;stroke:#000000;stroke-width:1.03320003"
           id="selection_to_path#1-2"
           inkscape:connector-curvature="0" />
        <path
           d="m 386.39,293.68 -27.9,4.13 c -5.16,0 -8.26,-3.1 -17.56,-3.1 -4.13,0 -13.43,0 -11.37,6.2 1.04,5.17 6.2,10.33 9.3,13.43 4.14,5.17 7.24,10.33 11.37,15.5 1.03,2.07 4.13,6.2 4.13,9.3 0,4.13 -5.16,9.3 -7.23,12.4 0,0 -15.5,22.73 -15.5,22.73 -1.03,2.07 -6.2,8.27 -6.2,10.33 -2.07,5.17 4.13,7.23 8.27,7.23 5.16,0 5.16,-2.06 14.46,-2.06 h 12.4 l 8.27,1.03 11.36,-1.03 h 7.23 c 6.2,0 18.6,-1.03 14.47,-10.33 -1.03,-2.07 -4.13,-5.17 -5.17,-7.24 l -17.56,-24.8 c -2.07,-3.09 -6.2,-7.23 -7.23,-11.36 0,-4.13 2.06,-8.27 4.13,-11.37 l 15.5,-20.66 c 3.1,-6.2 2.06,-10.33 -5.17,-10.33 z"
           style="fill:#ffffff;stroke:#000000;stroke-width:1.03320003"
           id="selection_to_path-9"
           inkscape:connector-curvature="0" />
      </g>
    </g>
    <g
       id="g11834"
       transform="matrix(0.05580723,0,0,0.05885504,25.917262,133.10159)">
      <rect
         x="0"
         y="-1.5e-05"
         width="744.09003"
         height="496.06"
         style="fill:#000000;fill-rule:evenodd;stroke-width:1.00000003pt"
         id="rect657-1" />
      <g
         transform="translate(11.735,27.521)"
         id="g790">
        <path
           d="m 297,155 c 3,-9 0,-25 1,-35 1,-6 5,-12 8,-18 2,-6 5,-14 12,-16 -2,6 -3,6 -5,11 l -3,11 c -2,5 -5,7 -6,12 -2,7 -1,24 -1,32 0,2 0,5 -2,7 -3,4 -12,1 -11,11 0,1 0,3 1,4 4,9 20,12 28,16 8,5 6,10 14,15 8,6 29,6 39,5 3,-1 8,-1 11,-3 8,-3 9,-11 17,-16 6,-3 19,-5 25,-14 1,-1 2,-3 2,-4 3,-11 -10,-7 -13,-14 -2,-5 1,-21 2,-26 l 3,3 v 9 l 1,10 c 11,-2 10,-15 11,-24 2,-24 2,-39 -15,-58 C 406,63 393,55 379,53 h -9 l -7,-1 -8,1 c -13,1 -22,1 -33,7 -8,4 -13,9 -19,16 -15,16 -18,36 -15,57 1,8 3,17 9,22 z m 33,-30 c 14,-1 24,9 19,23 -4,9 -13,16 -23,18 -9,1 -13,-5 -13,-13 0,-13 2,-24 17,-28 z m 56,0 c 12,0 18,10 19,21 0,3 1,6 1,8 -1,7 -8,12 -15,13 -11,0 -24,-17 -23,-27 2,-9 10,-13 18,-15 z m -18,61 -11,-2 -9,3 c -1,-7 2,-17 5,-24 1,-2 3,-6 5,-7 4,-1 5,4 5,6 2,8 5,16 5,24 z"
           style="fill:#ffffff;stroke:#000000"
           id="selection_to_path-2"
           inkscape:connector-curvature="0" />
        <path
           d="m 407,202 c -3,1 -7,1 -10,3 -10,7 -5,24 -14,35 -4,5 -13,7 -20,7 -13,0 -29,-1 -35,-14 -5,-9 2,-18 -9,-29 -2,-1 -5,-4 -7,-4 -3,0 -2,4 -2,6 l 1,20 c 0,15 4,15 11,24 4,6 7,12 14,15 9,3 19,3 28,2 7,0 11,1 18,-3 7,-4 19,-20 21,-28 l 1,-14 c 2,-10 3,-8 3,-20 z"
           style="fill:#ffffff;stroke:#000000"
           id="selection_to_path#1-7"
           inkscape:connector-curvature="0" />
        <path
           d="m 590,98 c -15,21 -31.26,38.79 -49,60 l -24,27 c -20,19 -70,56 -93,71 -13,9 -27,16 -41,22 l -18.26,8.84 c 3,3 8.58,4.64 13.63,7 3,0 13.63,-5.84 16.63,-7.84 l 32,-18 c 6,-4 12,-9 19,-10 -3,7 -10,11 -17,15 l -19,11 c 0,0 -19.95,11.37 -22.68,13.26 5.47,2.16 13.68,4.64 18.89,6.74 5,0 11.79,-5 15.79,-7 11,-6 25,-15 36,-23 l 18,-12 c 14,-11 28,-23 41,-36 10,-9 20,-18 28,-29 11,-13 18,-28 26,-43 9,-14 12,-23 17,-38 1,-5 4,-13 2,-18 z"
           style="fill:#ffffff;stroke:#000000"
           id="path719"
           inkscape:connector-curvature="0" />
        <path
           d="m 131,93 c -3,11 1,24 5,34 9,24 24,45 39,65 9,13 24,29 35,40 l 12,10 26,23 c 21,16 60,40 84,51 l 32,14 c 0,0 13,5 13,5 15,6 30,10 46,13 9,2 19,5 28,5 -3,-11 -9,-10 -18,-13 l -33,-13 c -46,-19 -97,-38 -133,-74 7,0 12,6 17,10 7,5 16,11 24,16 22,13 72,36 97,45 10,4 27,11 37,11 8,1 19,-4 25,-8 -4,-4 -8,-3 -14,-4 0,0 -31,-9 -31,-9 -27,-7 -53,-17 -78,-30 l -14,-6 -19,-12 -23,-15 -24,-19 -41,-32 c 0,0 -38,-39 -38,-39 l -19,-22 -20,-22 z"
           style="fill:#ffffff;stroke:#000000"
           id="path725"
           inkscape:connector-curvature="0" />
        <path
           d="m 452,340 c 2,4 6,10 6,15 0,11 -13,21 -23,20 -4,-1 -13,-6 -16,0 -1,2 -1,4 0,5 0,4 5,6 9,8 11,3 23,-1 32,-7 7,-4 12,-11 14,-19 l 2,-13 c 1,-4 5,-5 10,-12 6,-8 12,-22 20,-28 3,-2 6,-3 10,-4 -2,-3 -4,-5 -6,-8 -2,-1 -4,-3 -6,-3 -3,-1 -7,-1 -10,1 -14,7 -11,20 -19,30 -6,8 -13,12 -23,15 z"
           style="fill:#ffffff;stroke:#000000"
           id="path731"
           inkscape:connector-curvature="0" />
        <path
           d="m 484,353 c 7,3 13,2 20,2 l 15,1 c 7,0 9,-4 12,-10 1,-2 2,-6 0,-8 -2,-2 -6,-2 -9,-2 l -17,1 c -3,0 -8,0 -11,1 -5,3 -9,10 -10,15 z"
           style="fill:#ffffff;stroke:#000000"
           id="path737"
           inkscape:connector-curvature="0" />
        <path
           d="m 538,367 c -5,-2 -8,-4 -11,-8 -1,1 -2,1 -3,2 -1,5 12,17 14,6 z"
           style="fill:#ffffff;stroke:#000000"
           id="path743"
           inkscape:connector-curvature="0" />
        <path
           d="m 531,333 8,5 c -2,4 -7,12 -6,17 1,10 15,10 21,4 7,-8 7,-20 -3,-26 -6,-3 -13,-2 -20,0 z"
           style="fill:#ffffff;stroke:#000000"
           id="path744"
           inkscape:connector-curvature="0" />
        <path
           d="m 172,361 1,1 c 8,-2 13,-5 14,-13 -6,1 -12,7 -15,12 z"
           style="fill:#ffffff;stroke:#000000"
           id="selection_to_path#5-0"
           inkscape:connector-curvature="0" />
        <path
           d="m 179,324 c -3,-2 -6,-3 -10,-3 -3,0 -6,0 -9,1 -10,4 -11,20 -3,27 4,4 14,6 18,1 4,-4 3,-9 1,-14 -1,-3 -3,-7 -1,-9 1,-2 3,-2 4,-3 z"
           style="fill:#ffffff;stroke:#000000"
           id="selection_to_path#4-9"
           inkscape:connector-curvature="0" />
        <path
           d="m 178,328 c 1,3 6,15 8,17 3,2 6,2 9,2 l 18,-1 h 13 c 0,-3 0,-6 -1,-8 -3,-8 -14,-12 -22,-12 0,0 -9,1 -9,1 -6,0 -11,-1 -16,1 z"
           style="fill:#ffffff;stroke:#000000"
           id="selection_to_path#3-3"
           inkscape:connector-curvature="0" />
        <path
           d="m 197,296 c 19,5 19,21 27,32 3,4 11,10 12,14 1,3 0,4 1,11 2,9 8,18 16,23 9,6 17,10 28,7 6,-2 12,-6 9,-13 -3,-7 -14,0 -21,-2 -7,-3 -15,-13 -15,-21 l 4,-14 c -11,-4 -24,-13 -29,-24 -3,-7 -3,-17 -8,-22 -9,-7 -21,-1 -24,9 z"
           style="fill:#ffffff;stroke:#000000"
           id="selection_to_path#2-60"
           inkscape:connector-curvature="0" />
        <path
           d="m 245,319 c 3,4 5,5 9,7 14,8 23,2 37,-1 0,0 29,-9 29,-9 -3.84,-2.58 -12.42,-7.95 -16,-10 l -19,5 z"
           style="fill:#ffffff;stroke:#000000"
           id="path758"
           inkscape:connector-curvature="0" />
        <path
           d="m 259,348 c 26,0 50,-8 75,-14 0,0 11,-5.21 14.68,-5.21 -3.47,-2.53 -17.63,-7.63 -19.84,-9.63 -3,0.89 -14.84,4.84 -18.84,5.84 l -25,7 -12,3 c -7,3 -12,4 -14,13 z"
           style="fill:#ffffff;stroke:#000000"
           id="path759"
           inkscape:connector-curvature="0" />
        <path
           d="m 336,233 c 0,2.5 0.25,5.54 1.25,7.04 1,1.5 4.75,1.63 5.75,0.96 0.81,-0.82 -0.75,-4.75 -1.62,-5.88 C 340.5,234 339,233.5 336,233 Z"
           style="fill:#ffffff;stroke:#000000"
           id="selection_to_path#8"
           inkscape:connector-curvature="0" />
        <path
           d="m 344,234 1,5 c 0,1 1,3 2,4 4,2 6,-8 3,-9 -2,-1 -4,0 -6,0 z"
           style="fill:#ffffff;stroke:#000000"
           id="selection_to_path#7"
           inkscape:connector-curvature="0" />
        <path
           d="m 356,235 c -3,2 -3.09,5.72 -1.96,7.6 1.12,1.87 3.46,1.9 4.96,1.4 1,-0.5 2.5,-3 2.62,-5.25 0.13,-2.25 -1.12,-4.25 -5.62,-3.75 z"
           style="fill:#ffffff;stroke:#000000"
           id="selection_to_path#6-6"
           inkscape:connector-curvature="0" />
        <path
           d="m 345,222 c 2.7,1.4 7.17,-0.09 7.17,-0.09 L 352,216 c -1,-4 -4,-5 -6,-3 -1,2 -1,7 -1,9 z"
           style="fill:#ffffff;stroke:#000000"
           id="path784"
           inkscape:connector-curvature="0" />
        <path
           d="m 360,212 c -1,0 -4.13,-0.52 -5.13,0.48 -1.96,1.96 -2.87,8.52 0.13,10.52 1.87,0.48 5,0.91 6,-3.09 V 217 c 0,0 -0.04,-3.26 -1,-5 z"
           style="fill:#ffffff;stroke:#000000"
           id="path785"
           inkscape:connector-curvature="0" />
        <path
           d="m 370,244 c 0.91,0.4 2,-1 3,-2 7,-7 -7.56,-12.61 -5,-2 0,0 0.95,3.83 2,4 z"
           style="fill:#ffffff;stroke:#000000"
           id="path786"
           inkscape:connector-curvature="0" />
        <path
           d="m 341.74,211 c -1,-0.35 -2.74,0 -3.74,0 -7.78,3.52 2,17 5,8 v -3 c 0,0 -0.56,-4.65 -1.26,-5 z"
           style="fill:#ffffff;stroke:#000000"
           id="path787"
           inkscape:connector-curvature="0" />
        <path
           d="m 364,212 c 0,0 -1.7,10.13 -1,11 1.31,0.7 5.34,0.52 6.83,-0.52 0,-3 0.18,-6.51 -0.42,-8.34 C 368.8,212.31 367.5,212.5 364,212 Z"
           style="fill:#ffffff;stroke:#000000"
           id="path788"
           inkscape:connector-curvature="0" />
        <path
           d="M 373.56,210.83 373,216 c 0,3 0.65,8.83 4.65,5.83 0.5,-0.5 1.85,-6.45 1.3,-9.17 -1.03,-1.45 -2.91,-1.6 -5.39,-1.83 z"
           style="fill:#ffffff;stroke:#000000"
           id="path789"
           inkscape:connector-curvature="0" />
      </g>
    </g>
    <g
       id="g11947"
       transform="matrix(0.0563152,0,0,0.05961701,25.539287,171.27718)">
      <rect
         x="0"
         y="-1.5e-05"
         width="744.09003"
         height="496.06"
         style="fill:#000000;fill-rule:evenodd;stroke-width:1.00000003pt"
         id="rect657-2" />
      <g
         transform="translate(6.6389,21.571)"
         id="g873">
        <path
           d="m 375.8,263.21 c -1.06,0 -3.17,0 -4.23,1.06 -5.29,2.11 1.06,9.52 4.23,2.11 z"
           style="fill:#ffffff;stroke:#000000;stroke-width:1.05809999"
           id="selection_to_path#9"
           inkscape:connector-curvature="0" />
        <path
           d="m 387.44,269.56 c 1.06,0 1.06,0 3.17,-1.06 6.35,-5.29 -4.23,-11.64 -4.23,-2.12 z"
           style="fill:#ffffff;stroke:#000000;stroke-width:1.05809999"
           id="selection_to_path#8-6"
           inkscape:connector-curvature="0" />
        <path
           d="m 401.19,267.44 c 5.29,-1.06 5.29,-2.12 7.41,-7.41 -6.35,-1.05 -8.46,1.06 -7.41,7.41 z"
           style="fill:#ffffff;stroke:#000000;stroke-width:1.05809999"
           id="selection_to_path#7-1"
           inkscape:connector-curvature="0" />
        <path
           d="m 405.43,240.99 c -1.06,0 -2.12,0 -3.18,2.11 -3.17,2.12 -5.29,8.47 -2.11,10.58 5.29,5.3 6.34,-4.23 6.34,-7.4 z"
           style="fill:#ffffff;stroke:#000000;stroke-width:1.05809999"
           id="selection_to_path#6-8"
           inkscape:connector-curvature="0" />
        <path
           d="m 307.02,125.66 c 0,4.23 -2.11,8.46 -3.17,12.7 -2.11,7.4 -4.23,14.81 -5.29,22.22 0,3.17 -1.06,12.69 -3.17,14.81 -2.12,3.17 -4.24,1.06 -7.41,2.11 -6.35,1.06 -8.46,12.7 2.12,22.22 6.34,4.24 11.64,6.35 19.04,6.35 5.29,0 9.52,-2.11 14.81,1.06 4.24,1.06 10.59,10.58 12.7,14.81 2.12,2.12 4.23,16.93 3.18,20.11 0,3.17 -3.18,10.58 0,13.75 4.23,2.12 9.52,0 9.52,-4.23 0,-3.17 -3.18,-6.35 -3.18,-8.47 0,-1.05 1.06,-2.11 3.18,-2.11 3.17,-1.06 4.23,1.06 5.29,4.23 1.06,6.35 -2.12,10.58 4.23,13.76 -2.11,5.29 -3.17,7.4 2.12,10.58 l -2.12,2.11 -11.64,3.18 c 3.18,-6.35 3.18,-8.47 -1.06,-14.82 -6.34,5.29 -5.29,7.41 -3.17,13.76 -10.58,-5.29 -3.17,-21.16 -15.87,-10.58 -3.18,-12.7 2.11,-17.99 -1.06,-34.92 -1.06,-3.17 -1.06,-8.46 -3.17,-9.52 -2.12,-3.17 -7.41,-3.17 -8.47,2.11 v 11.64 l -2.11,23.28 c 0,6.35 -1.06,14.81 2.11,20.1 3.18,5.3 11.64,10.58 16.93,15.88 6.35,5.29 10.58,11.63 19.05,13.75 l 23.27,-1.06 c 5.29,0 8.47,1.06 14.82,1.06 10.58,-1.06 9.52,-3.17 17.98,-7.41 5.29,-3.17 11.64,-5.29 15.88,-10.58 9.52,-10.58 6.34,-30.68 5.28,-43.38 0,-4.23 1.06,-7.4 1.06,-11.64 0,-3.17 2.12,-7.4 0,-10.58 -3.17,-5.29 -9.52,-1.06 -11.64,3.18 -4.23,9.52 2.12,31.74 -5.29,41.26 -5.29,8.47 -12.69,4.23 -15.87,4.23 -3.17,1.06 -4.23,2.12 -7.4,2.12 l -6.35,-1.06 c -3.18,1.06 -5.29,3.18 -9.52,3.18 -3.18,-1.06 -7.41,-3.18 -8.47,-6.35 -3.17,-6.35 0,-10.58 0,-16.93 0,-3.17 -2.12,-7.41 -3.17,-10.58 4.23,2.11 5.29,2.11 9.52,0 -1.06,4.23 -3.17,10.58 -2.12,14.81 1.06,4.23 7.41,3.18 8.47,0 2.11,-4.23 0,-11.64 -1.06,-15.87 l 8.46,-1.06 c -1.05,3.18 -3.17,10.58 -3.17,13.76 1.06,4.23 10.58,2.11 11.64,0 2.11,-2.12 -1.06,-7.41 0,-10.58 2.11,-4.24 7.41,-3.18 9.52,-6.35 0,-1.06 5.29,-20.1 9.52,-23.28 13.76,-11.64 32.81,-1.06 40.21,-21.16 1.06,-2.12 1.06,-3.18 1.06,-5.29 0,-1.06 0,-3.18 -1.06,-4.23 -3.17,-11.64 -14.81,3.17 -16.93,-6.35 -1.06,-2.12 0,-8.47 1.06,-10.58 1.06,-6.35 2.12,-11.64 3.17,-17.99 0,-7.41 -3.17,-12.7 -3.17,-19.04 2.12,3.17 6.35,11.63 6.35,15.87 1.06,2.11 0,4.23 0,6.34 v 6.35 c 0,5.29 -1.06,11.64 0,16.93 9.52,-3.17 8.46,-9.52 9.52,-17.99 2.12,-16.92 6.35,-24.33 1.06,-41.26 -2.12,-7.41 -8.46,-22.22 -12.7,-27.51 -3.17,-4.232 -8.46,-7.407 -12.7,-10.581 -4.23,-3.174 -7.4,-6.348 -11.63,-9.523 C 403.31,60.058 384.26,59 370.51,59 c -8.47,0 -32.8,5.29 -40.21,9.523 -5.29,3.174 -10.58,7.406 -15.87,10.58 -6.35,4.233 -11.64,8.465 -15.87,14.813 -3.17,3.174 -12.7,27.514 -13.75,31.744 -1.06,7.4 1.05,13.75 2.11,20.1 1.06,7.41 0,10.58 0,16.93 0,3.17 0,10.58 5.29,8.47 3.18,-1.06 3.18,-9.53 4.23,-12.7 2.12,-15.87 0,-8.47 6.35,-23.28 2.12,-4.23 1.06,-5.29 4.23,-9.52 z m 95.23,23.28 c 6.35,0 16.93,4.23 21.16,9.52 6.35,8.46 3.18,24.33 -5.29,29.62 -3.17,2.12 -9.52,3.18 -12.69,3.18 -3.18,0 -5.29,-1.06 -8.47,-3.18 -9.52,-4.23 -8.46,-8.46 -9.52,-17.98 -1.06,-3.18 -2.12,-7.41 -1.06,-10.58 2.12,-6.35 9.52,-9.53 15.87,-10.58 z m -71.95,1.05 c 4.24,0 9.53,0 13.76,1.06 10.58,4.23 16.93,17.99 9.52,28.57 -3.17,4.23 -10.58,5.29 -15.87,7.41 l -8.47,3.17 c -4.23,1.06 -6.34,-1.06 -9.52,-3.17 -7.4,-4.24 -8.46,-5.29 -8.46,-13.76 0,-3.17 0,-6.35 1.06,-9.52 2.11,-9.52 9.52,-11.64 17.98,-13.76 z m 42.33,34.92 c 4.23,5.29 10.58,16.93 8.46,24.34 -1.06,5.29 -7.41,12.69 -11.64,2.11 -1.06,1.06 -5.29,2.12 -6.35,2.12 -4.23,-1.06 -3.17,-7.41 -2.11,-10.58 1.05,-7.41 5.29,-13.76 11.64,-17.99 z"
           style="fill:#ffffff;stroke:#000000;stroke-width:1.05809999"
           id="selection_to_path#5-7"
           inkscape:connector-curvature="0" />
        <path
           d="m 182.17,289.66 c 0,-13.76 -2.11,-14.81 -5.29,-26.45 l -5.29,-19.05 c -1.06,-5.29 -5.29,-15.87 -2.11,-20.1 3.17,-5.29 7.4,0 15.87,1.06 11.64,1.06 28.57,3.17 40.2,0 2.12,0 7.41,-1.06 8.47,-2.12 3.17,-2.12 2.12,-8.46 0,-10.58 -3.18,-2.12 -9.52,-2.12 -12.7,-2.12 -6.35,-2.11 -6.35,-3.17 -13.75,-3.17 -9.53,0 -9.53,2.12 -26.45,2.12 -5.3,0 -5.3,-2.12 -14.82,-2.12 l -27.51,1.06 c -2.11,0 -8.46,0 -10.58,1.06 -5.29,2.11 -4.23,14.81 -2.11,19.04 3.17,5.29 8.46,1.06 14.81,0 6.35,-1.06 8.46,2.12 11.64,7.41 l 6.35,15.87 7.4,11.64 4.23,7.4 c 0,0 4.24,6.35 4.24,6.35 3.17,5.29 2.11,9.52 7.4,12.7 z"
           style="fill:#ffffff;stroke:#000000;stroke-width:1.05809999"
           id="selection_to_path#4-92"
           inkscape:connector-curvature="0" />
        <path
           d="m 185.35,279.08 c 4.23,-5.29 10.58,-24.34 12.69,-31.74 1.06,-3.18 3.18,-8.47 1.06,-10.58 -2.11,-2.12 -6.35,-2.12 -8.46,-2.12 -3.18,0 -9.52,0 -11.64,2.12 -2.12,2.11 -1.06,7.4 0,10.58 l 4.23,17.98 c 1.06,6.35 -1.06,6.35 2.12,13.76 z"
           style="fill:#ffffff;stroke:#000000;stroke-width:1.05809999"
           id="selection_to_path#3-0"
           inkscape:connector-curvature="0" />
        <path
           d="m 183.23,165.86 c -9.52,2.12 -20.1,7.41 -22.22,17.99 -2.11,12.7 7.41,15.87 16.93,17.99 3.18,1.06 7.41,3.17 10.58,2.12 7.41,-1.06 16.93,-14.82 15.87,-23.28 -2.11,-9.52 -11.64,-15.87 -21.16,-14.82 z"
           style="fill:#ffffff;stroke:#000000;stroke-width:1.05809999"
           id="selection_to_path#2-2"
           inkscape:connector-curvature="0" />
        <path
           d="m 509.12,324.58 c 0,0 -19.05,8.46 -19.05,8.46 l -31.74,7.41 c -12.7,2.11 -24.34,-2.12 -35.97,-2.12 h -17.99 l -12.7,-1.06 h -22.22 l -22.22,1.06 -51.84,3.17 -19.05,-2.11 c -6.35,0 -14.81,-1.06 -21.16,-3.17 -8.46,-3.18 -10.58,-9.53 -22.22,-8.47 -6.35,0 -14.81,6.35 -14.81,12.7 1.05,4.23 4.23,7.4 2.11,12.69 -3.17,10.58 -15.87,16.93 -8.46,31.75 1.06,2.11 2.12,3.17 3.17,5.29 2.12,1.05 4.23,2.11 7.41,3.17 13.76,2.12 15.87,-2.12 27.51,-5.29 l 66.66,-15.87 h 8.46 l 33.86,-2.12 24.34,-1.05 45.49,1.05 9.53,2.12 16.93,1.06 9.52,2.11 6.35,1.06 6.35,1.06 c 9.52,1.06 20.1,1.06 29.62,5.29 8.46,2.12 15.87,10.58 24.34,3.17 7.4,-5.29 7.4,-17.98 3.17,-25.39 -3.17,-4.23 -6.35,-5.29 -7.41,-9.52 -3.17,-6.35 3.18,-11.64 3.18,-15.87 2.12,-12.7 -13.76,-12.7 -21.16,-10.58 z"
           style="fill:#ffffff;stroke:#000000;stroke-width:1.05809999"
           id="selection_to_path#1-3"
           inkscape:connector-curvature="0" />
        <path
           d="m 538.74,191.26 c -3.17,0 -9.52,0 -12.69,1.06 -10.59,4.23 -11.64,19.04 -11.64,28.56 0,19.05 16.93,31.75 30.68,41.27 4.23,3.17 12.7,12.7 16.93,12.7 5.29,0 14.81,-10.58 17.99,-13.76 l 9.52,-8.46 c 11.64,-11.64 24.34,-35.98 11.64,-51.85 -7.41,-9.52 -21.16,-9.52 -29.63,-1.06 -4.23,3.18 -6.34,9.53 -10.58,8.47 -3.17,0 -6.35,-6.35 -8.46,-8.47 -4.23,-5.29 -7.41,-8.46 -13.76,-8.46 z"
           style="fill:#ffffff;stroke:#000000;stroke-width:1.05809999"
           id="selection_to_path-7"
           inkscape:connector-curvature="0" />
      </g>
    </g>
    <g
       id="g12021"
       transform="matrix(0.05733114,0,0,0.05809309,25.290203,209.53631)">
      <rect
         x="0"
         y="-1.5e-05"
         width="744.09003"
         height="496.06"
         style="fill:#000000;fill-rule:evenodd;stroke-width:1.00000003pt"
         id="rect657-5" />
      <path
         d="m 540.21,225.7 c -3.36,2.24 -6.72,4.48 -7.84,8.96 -2.24,6.72 6.72,4.48 10.08,2.24 5.59,-2.24 6.71,-12.32 -2.24,-11.2 z M 511.1,189.88 c -2.24,6.71 -7.84,15.67 -12.32,22.39 -1.12,2.23 -4.47,6.71 -3.36,8.95 2.24,3.36 6.72,0 7.84,-1.12 6.72,-6.71 12.32,-15.67 19.04,-21.27 l -10.08,17.91 c -1.12,2.24 -2.24,6.72 1.12,7.84 5.6,2.24 14.55,-11.19 19.03,-14.55 l -6.72,13.43 c -1.12,3.36 0,5.6 3.36,4.48 6.72,0 14.56,-12.32 13.44,-19.03 -1.12,-4.48 -3.36,-6.72 -6.72,-8.96 -4.48,-4.48 -20.15,-19.03 -25.75,-21.27 -2.24,0 -5.6,0 -7.84,2.24 -3.36,2.24 -12.31,19.03 -12.31,23.51 0,8.96 4.48,5.6 8.95,1.12 l 4.48,-6.72 c 0,0 7.84,-8.95 7.84,-8.95 z m -40.3,55.97 c 5.59,-10.07 12.31,-14.55 13.43,-26.87 1.12,-8.95 -3.36,-11.19 -1.12,-17.91 1.12,-5.6 5.6,-10.07 7.84,-14.55 2.24,-4.48 1.12,-8.96 0,-13.44 -10.08,2.24 -13.44,11.2 -19.03,19.03 -4.48,6.72 -12.32,16.8 -15.68,23.51 l -4.48,15.68 -1.12,8.96 c -2.24,10.07 -8.95,17.91 -16.79,23.51 l -30.23,20.15 -8.96,5.6 -22.39,13.43 -13.43,10.08 c -2.24,2.24 -4.48,4.47 -7.84,4.47 -2.24,-1.11 -5.6,-4.47 -6.72,-5.59 l -12.31,-14.56 c -6.72,-6.71 -14.55,-13.43 -22.39,-17.91 l -11.2,-7.84 c -3.36,-2.24 -15.67,-12.31 -17.91,-13.43 -6.72,-2.24 -4.48,7.83 -3.36,11.19 3.36,13.44 10.08,25.75 0,39.19 -7.84,11.19 -17.91,12.31 -25.75,20.15 -2.24,3.36 -6.72,7.84 -3.36,12.32 1.12,2.24 11.2,8.95 14.56,11.19 16.79,10.08 22.39,13.44 41.42,19.03 0,0 14.55,4.48 14.55,4.48 6.72,2.24 7.84,0 21.28,5.6 7.83,3.36 15.67,8.96 24.63,8.96 8.95,-1.12 23.51,-12.32 31.34,-17.92 7.84,-5.59 11.2,-7.83 19.04,-14.55 l 10.07,-13.43 c 0,0 41.43,-53.74 41.43,-53.74 0,0 20.15,-22.4 20.15,-22.4 3.36,-3.35 10.07,-4.47 14.55,-6.71 4.48,-2.24 14.56,-15.68 17.92,-20.15 6.71,-12.32 -10.08,-7.84 -15.68,-8.96 -4.48,0 -7.84,-2.24 -12.31,-2.24 -5.6,2.24 -14.56,12.32 -20.15,15.67 z m 12.31,-120.91 c -15.67,5.6 -1.12,22.39 -7.84,34.71 0,0 -16.79,24.63 -16.79,24.63 -3.36,4.48 -6.72,11.19 -12.32,14.55 -7.83,5.6 -16.79,0 -21.27,5.6 -5.59,5.6 -3.36,20.15 11.2,16.79 6.72,-1.12 15.67,-6.72 19.03,-12.31 l 5.6,-8.96 32.47,-49.26 c 5.59,-10.08 3.35,-26.87 -10.08,-25.75 z M 230.09,66.723 c 6.72,7.837 11.19,10.076 17.91,15.674 11.2,8.956 21.27,17.913 31.35,27.993 4.48,4.47 16.79,21.27 20.15,22.39 0,0 35.83,6.72 35.83,6.72 l 63.81,16.79 c 7.84,2.24 26.87,12.31 33.59,16.79 2.24,2.24 13.43,8.96 15.67,10.08 4.48,0 6.72,-4.48 7.84,-7.84 L 440.57,163.01 C 424.89,152.93 408.1,142.85 391.31,133.9 L 362.2,121.58 c -6.72,-3.36 -16.8,-6.72 -21.27,-11.19 11.19,1.12 26.87,7.83 36.94,13.43 l 8.96,3.36 8.95,4.48 16.8,6.72 c 4.48,2.23 6.72,4.47 10.07,6.71 l 12.32,7.84 c 7.84,3.36 10.07,5.6 16.79,10.08 2.24,2.23 5.6,4.47 8.96,4.47 3.36,0 5.6,-4.47 6.72,-6.71 L 454,149.57 C 438.33,136.14 421.53,126.06 403.62,115.98 386.83,105.91 367.8,98.071 349.88,91.353 l -11.19,-4.478 c 0,0 -29.11,-6.717 -29.11,-6.717 0,0 -24.63,-6.718 -24.63,-6.718 0,0 -39.19,-6.717 -54.86,-6.717 z"
         style="fill:#ffffff;stroke:#000000;stroke-width:1.11960006"
         id="selection_to_path-92"
         inkscape:connector-curvature="0" />
    </g>
    <g
       id="g12158"
       transform="matrix(0.05733114,0,0,0.059617,25.320903,246.19858)">
      <rect
         x="0"
         y="-1.5e-05"
         width="744.09003"
         height="496.06"
         style="fill:#000000;fill-rule:evenodd;stroke-width:1.00000003pt"
         id="rect657-28" />
      <g
         transform="translate(-2.5344,25.577)"
         id="g682">
        <path
           d="m 496.55,244 c 0,0 13.51,3.28 16.93,12.85 2.62,9.98 -0.29,17.48 -6.45,19.5 -6.96,2.83 -15.62,0.08 -26.36,2.67 -10.74,2.59 -64.89,17.88 -71.91,22.72 -7.73,5.64 -82.08,40.83 -93.26,40.91 -5.54,0.43 -29.12,28.69 -48.39,26.96 -6.81,-0.81 -12.1,-12.83 -12.9,-17.66 -3.22,-1.21 -20.56,1.42 -18.32,-15.95 2.24,-17.37 40.85,-9.29 40.85,-9.29 9.68,-0.4 14.01,5.04 41.27,-6.63 33.51,-16.66 106.17,-51.76 106.17,-51.76 0,0 27.41,-6.01 41.49,-30.16 10.33,-21.09 28.73,-1.67 30.88,5.84 z"
           style="fill:#ffffff;fill-rule:evenodd;stroke:#000000;stroke-width:4.25559998;stroke-linejoin:round"
           id="path661"
           inkscape:connector-curvature="0" />
        <path
           d="m 253.36,239.45 c 0,0 -14.42,2.27 -17.45,12.13 -3.04,9.87 0,16.69 6.07,18.97 6.06,2.27 15.17,1.52 25.79,4.55 10.62,3.03 64.09,20.57 70.9,25.7 7.49,5.95 80.31,44.2 91.47,44.75 5.52,0.66 23.87,30.11 43.19,29.18 6.85,-0.52 15.17,-15.43 15.17,-15.43 0,0 20.49,2.27 18.97,-15.17 -1.52,-17.45 -37.93,-12.9 -37.93,-12.9 -9.66,-0.8 -14.21,4.46 -40.96,-8.34 -32.79,-18.04 -103.92,-56.13 -103.92,-56.13 0,0 -27.14,-7.14 -40.2,-31.86 -9.45,-21.5 -28.64,-2.87 -31.1,4.55 z"
           style="fill:#ffffff;fill-rule:evenodd;stroke:#000000;stroke-width:4.25559998;stroke-linejoin:round"
           id="path660"
           inkscape:connector-curvature="0" />
        <path
           d="m 265.66,256.17 c 0,0.41 -4.03,2.82 -2.02,5.24 2.02,2.41 31.4,10.06 31.4,10.06"
           style="fill:none;stroke:#000000;stroke-width:3.48180008;stroke-linecap:round;stroke-linejoin:round"
           id="path662"
           inkscape:connector-curvature="0" />
        <path
           d="m 483.42,260.2 c 0,0.4 2.81,5.63 0.4,7.65 -2.42,2.01 -29.79,8.05 -29.79,8.05"
           style="fill:none;stroke:#000000;stroke-width:3.48180008;stroke-linecap:round;stroke-linejoin:round"
           id="path663"
           inkscape:connector-curvature="0" />
        <path
           d="m 474.16,359.22 c 0,0.4 -5.24,3.22 -9.26,2.81 -4.03,-0.4 -24.96,-22.94 -28.98,-22.54"
           style="fill:none;stroke:#000000;stroke-width:3.48180008;stroke-linecap:round;stroke-linejoin:round"
           id="path664"
           inkscape:connector-curvature="0" />
        <path
           d="m 483.42,342.71 c 6.44,0.41 6.84,1.21 6.44,1.21"
           style="fill:none;stroke:#000000;stroke-width:3.48180008;stroke-linecap:round;stroke-linejoin:round"
           id="path665"
           inkscape:connector-curvature="0" />
        <path
           d="m 253.98,336.27 c 0.41,0 3.63,-2.81 6.04,-1.21"
           style="fill:none;stroke:#000000;stroke-width:3.48180008;stroke-linecap:round;stroke-linejoin:round"
           id="path666"
           inkscape:connector-curvature="0" />
        <path
           d="m 266.06,343.12 c 0,0 -0.4,14.49 5.23,15.69 5.64,1.21 12.48,-6.03 12.48,-6.03"
           style="fill:none;stroke:#000000;stroke-width:3.48180008;stroke-linecap:round;stroke-linejoin:round"
           id="path667"
           inkscape:connector-curvature="0" />
        <path
           d="m 447.71,208.3 c -5.16,0 -8.06,0.44 -9.04,6.93 -3.39,-0.53 -3.37,-6.73 -5.92,-6.68 -3.78,0.05 -2.04,4.81 -6.02,7.47 0,0 -0.39,-6.88 -1.23,-7.43 -2.38,0.15 -4.04,-0.46 -4.91,0.36 -0.88,0.81 -1.67,4.67 -2.7,4.67 -3.09,1.04 -5.26,-2.22 -8.35,-1.19 -5.16,2.06 -11.35,8.25 -1.04,13.41 v 2.06 l -8.25,3.1 c -3.09,-9.29 -6.19,-10.32 -8.25,-21.67 -1.03,-8.25 1.03,-17.53 -3.1,-25.79 -0.93,-1.58 -7.21,2.56 -8.25,3.1 -5.16,2.06 -8.25,1.03 -8.25,9.28 l 2.06,11.35 c 0,10.32 -9.28,21.67 2.06,34.05 11.35,11.34 31.98,1.03 49.52,2.06 5.16,0 19.6,3.09 22.7,-1.03 2.06,-4.13 -2.06,-13.41 -2.06,-17.54 0,0 2.51,-16.46 1.03,-16.51 z"
           style="fill:#ffffff;stroke:#ffffff;stroke-width:1.03170002;stroke-linejoin:round"
           id="selection_to_path-97"
           inkscape:connector-curvature="0" />
        <path
           d="m 291.96,124.83 c 5.16,3.1 5.16,9.29 6.19,15.47 2.06,10.32 3.09,28.89 11.35,36.11 2.06,2.07 5.16,4.13 7.22,3.1 5.16,-1.03 10.32,-13.41 12.38,-18.57 l 4.12,-14.44 c 0,0 17.54,-44.37 17.54,-44.37 4.13,-8.249 5.16,-14.439 12.38,-20.629 -2.06,5.158 -4.12,7.221 -6.19,12.38 l -6.19,15.479 -8.25,23.72 -5.16,12.38 -9.28,27.86 c -5.16,10.32 -11.35,12.38 -14.45,23.73 0,3.09 -2.06,8.25 -2.06,10.31 0,3.1 2.06,7.22 3.1,10.32 4.12,12.38 11.34,18.57 24.76,18.57 21.66,0 31.98,-14.44 29.91,-35.08 -2.06,-9.28 -8.25,-26.82 -20.63,-23.73 1.03,4.13 2.06,9.29 4.13,13.42 4.12,7.22 8.25,9.28 7.22,18.57 -3.1,13.41 -19.6,20.63 -29.92,10.31 -6.19,-7.22 -5.16,-17.54 -2.06,-25.79 4.12,7.22 1.03,9.29 4.12,14.45 3.1,6.18 14.45,7.22 19.61,3.09 5.15,-5.16 1.03,-12.38 -2.07,-17.54 -3.09,-4.13 -5.16,-13.41 -3.09,-18.57 2.06,-6.19 14.44,-26.82 18.57,-33.01 l 5.15,-11.35 c 6.2,-9.28 19.61,-26.82 27.86,-33.012 -2.06,7.222 -9.28,15.472 -13.41,21.662 0,0 -17.54,25.79 -17.54,25.79 -2.06,3.1 -11.35,17.54 -12.38,20.64 -2.06,6.19 4.13,5.16 7.22,4.12 6.19,-1.03 18.57,-6.19 22.7,-9.28 6.19,-6.19 3.09,-10.32 9.28,-15.48 0,4.13 0,8.26 -2.06,12.38 -4.13,11.35 -18.57,13.42 -28.89,17.54 v 2.06 c 8.26,2.07 22.7,-1.03 27.86,3.1 3.09,2.06 13.1,21.1 18.26,24.2 4.75,2.27 5.47,-3.57 6.5,-6.66 5.04,-1.73 4.1,6.7 7.38,6.59 2.31,-0.09 2.42,-2.47 3.97,-6.59 3.42,-1.46 4.62,5.34 6.03,5.82 3.11,1.1 4.3,-2.99 5.72,-3.25 2.06,0 2.8,6.41 7.58,1.46 1.89,-2.39 -2.83,-10.22 -3.86,-12.29 -1.03,-5.15 -1.03,-11.34 -1.03,-16.5 l -8.25,2.06 c 0,-12.38 3.09,-15.47 3.09,-21.66 -1.03,-6.19 -6.19,-11.35 -8.25,-18.57 -2.06,-5.16 0,-10.32 0,-15.48 0,-7.22 -5.16,-11.35 -9.29,-16.5 -7.22,-8.258 -6.19,-10.321 -16.5,-18.574 -12.38,-9.285 -24.76,-14.443 -40.24,-14.443 l -10.31,1.031 h -9.29 c -17.54,2.064 -31.98,9.285 -45.39,20.634 -8.26,7.221 -13.41,11.352 -17.54,20.632 -7.22,12.38 -6.19,24.76 -6.19,38.17 0,4.13 1.03,11.35 2.06,15.48 1.03,5.16 4.13,10.31 7.22,14.44 l 9.29,18.57 c 1.03,1.03 2.06,3.09 3.09,4.13 8.26,8.25 11.35,1.03 13.42,-6.19 l 3.09,-7.23 c 1.03,-6.18 -6.19,-7.22 -11.35,-18.56 -5.16,-12.38 -8.25,-33.02 -8.25,-46.43 z m 115.54,7.22 c 9.29,1.03 11.35,16.51 9.29,23.73 -1.03,3.1 -3.09,7.22 -6.19,8.25 -4.13,0 -6.19,-3.09 -7.22,-7.22 -2.06,-6.19 -2.06,-21.66 4.12,-24.76 z"
           style="fill:#fbffff;stroke:#ffffff;stroke-width:1.03170002"
           id="path681"
           inkscape:connector-curvature="0" />
      </g>
    </g>
  </g>
</svg>
