<?xml version="1.0" encoding="UTF-8" standalone="no"?>
<!-- Created with Inkscape (http://www.inkscape.org/) -->

<svg
   xmlns:dc="http://purl.org/dc/elements/1.1/"
   xmlns:cc="http://creativecommons.org/ns#"
   xmlns:rdf="http://www.w3.org/1999/02/22-rdf-syntax-ns#"
   xmlns:svg="http://www.w3.org/2000/svg"
   xmlns="http://www.w3.org/2000/svg"
   xmlns:xlink="http://www.w3.org/1999/xlink"
   xmlns:sodipodi="http://sodipodi.sourceforge.net/DTD/sodipodi-0.dtd"
   xmlns:inkscape="http://www.inkscape.org/namespaces/inkscape"
   width="210mm"
   height="297mm"
   viewBox="0 0 210 297"
   version="1.1"
   id="svg8"
   inkscape:version="0.92pre2 r"
   sodipodi:docname="CavernDeep.svg">
  <defs
     id="defs2">
    <linearGradient
       x2="244.4844"
       x1="71.7646"
       id="SVGID_1_"
       gradientUnits="userSpaceOnUse">
      <stop
         id="stop10732"
         stop-color="#9e9e9e"
         offset="0" />
      <stop
         id="stop10734"
         stop-color="#dbdbdb"
         offset="1" />
    </linearGradient>
    <linearGradient
       x2="93.3252"
       x1="222.9248"
       id="SVGID_2_"
       gradientUnits="userSpaceOnUse">
      <stop
         id="stop10737"
         stop-color="#adadad"
         offset="0" />
      <stop
         id="stop10739"
         stop-color="#ccc"
         offset="1" />
    </linearGradient>
    <linearGradient
       x2="158.125"
       x1="218.125"
       id="light-northeast_3_"
       gradientUnits="userSpaceOnUse">
      <stop
         id="stop10742"
         stop-color="#ccc"
         offset="0" />
      <stop
         id="stop10744"
         stop-color="#f2f2f2"
         offset="1" />
    </linearGradient>
    <linearGradient
       x2="98.125"
       x1="158.125"
       id="light-southwest_3_"
       gradientUnits="userSpaceOnUse">
      <stop
         id="stop10747"
         stop-color="#ccc"
         offset="0" />
      <stop
         id="stop10749"
         stop-color="#f2f2f2"
         offset="1" />
    </linearGradient>
    <linearGradient
       y2="179.2364"
       y1="154.0483"
       x2="237.2312"
       x1="235.9111"
       id="light-west_1_"
       gradientUnits="userSpaceOnUse">
      <stop
         id="stop10752"
         stop-color="#545454"
         offset="0" />
      <stop
         id="stop10754"
         stop-color="#d6d6d6"
         offset="1" />
    </linearGradient>
    <linearGradient
       y2="77.2851"
       y1="82.9648"
       x2="143.5156"
       x1="172.7354"
       id="dark-north_1_"
       gradientUnits="userSpaceOnUse">
      <stop
         id="stop10757"
         stop-color="#545454"
         offset="0" />
      <stop
         id="stop10759"
         stop-color="#d6d6d6"
         offset="1" />
    </linearGradient>
    <linearGradient
       y2="178.2501"
       y1="152.6968"
       x2="78.7175"
       x1="80.5044"
       id="dark-east_1_"
       gradientUnits="userSpaceOnUse">
      <stop
         id="stop10762"
         stop-color="#545454"
         offset="0" />
      <stop
         id="stop10764"
         stop-color="#d6d6d6"
         offset="1" />
    </linearGradient>
    <linearGradient
       y2="245.2496"
       y1="227.001"
       x2="183.1939"
       x1="133.0562"
       id="dark-south_1_"
       gradientUnits="userSpaceOnUse">
      <stop
         id="stop10767"
         stop-color="#545454"
         offset="0" />
      <stop
         id="stop10769"
         stop-color="#d6d6d6"
         offset="1" />
    </linearGradient>
    <radialGradient
       r="32.4004"
       id="SVGID_3_"
       gradientUnits="userSpaceOnUse"
       cy="158.125"
       cx="158.125">
      <stop
         id="stop10772"
         offset=".1963" />
      <stop
         id="stop10774"
         stop-color="#bababa"
         offset="1" />
    </radialGradient>
    <radialGradient
       r="18"
       id="SVGID_4_"
       gradientUnits="userSpaceOnUse"
       cy="158.125"
       cx="158.125">
      <stop
         id="stop10777"
         stop-color="#7d7d7d"
         offset="0" />
      <stop
         id="stop10779"
         offset="1" />
    </radialGradient>
  </defs>
  <sodipodi:namedview
     id="base"
     pagecolor="#ffffff"
     bordercolor="#666666"
     borderopacity="1.0"
     inkscape:pageopacity="0.0"
     inkscape:pageshadow="2"
     inkscape:zoom="0.7"
     inkscape:cx="-45.714286"
     inkscape:cy="756.11483"
     inkscape:document-units="mm"
     inkscape:current-layer="layer1"
     showgrid="false"
     inkscape:window-width="1538"
     inkscape:window-height="947"
     inkscape:window-x="166"
     inkscape:window-y="67"
     inkscape:window-maximized="0" />
  <metadata
     id="metadata5">
    <rdf:RDF>
      <cc:Work
         rdf:about="">
        <dc:format>image/svg+xml</dc:format>
        <dc:type
           rdf:resource="http://purl.org/dc/dcmitype/StillImage" />
        <dc:title />
      </cc:Work>
    </rdf:RDF>
  </metadata>
  <g
     inkscape:groupmode="layer"
     id="layer3"
     inkscape:label="Layer 0" />
  <g
     inkscape:label="Layer 1"
     inkscape:groupmode="layer"
     id="layer1">
    <g
       style=""
       id="g11035">
      <rect
         y="6.7142854"
         x="10.583333"
         height="48.380955"
         width="191.25594"
         id="rect112"
         style="opacity:1;fill:#000000;stroke:#1a1a1a;stroke-width:0.26458332;stroke-opacity:1" />
      <rect
         y="55.095238"
         x="10.583333"
         height="234.34523"
         width="8.3154764"
         id="rect114"
         style="opacity:1;fill:#000000;stroke:#1a1a1a;stroke-width:0.26458332;stroke-opacity:1" />
      <rect
         y="281.44183"
         x="18.895308"
         height="8.0021515"
         width="175.2291"
         id="rect116"
         style="opacity:1;fill:#000000;stroke:#1a1a1a;stroke-width:0.2575798;stroke-opacity:1" />
      <rect
         y="55.095242"
         x="193.52379"
         height="234.34525"
         width="8.3154764"
         id="rect114-3"
         style="opacity:1;fill:#000000;stroke:#1a1a1a;stroke-width:0.26458332;stroke-opacity:1" />
      <g
         transform="matrix(0.08504464,0,0,0.06803571,133.80355,6.7142854)"
         id="layer2"
         inkscape:label="Vector"
         style="display:inline;opacity:1">
        <g
           id="stripes">
          <path
             inkscape:connector-curvature="0"
             id="bluestripe"
             d="M 0,700 307,0 h 60 L 60,700 Z"
             style="opacity:1;fill:#006699;fill-opacity:1;fill-rule:nonzero;stroke:none;stroke-width:4;stroke-linecap:butt;stroke-linejoin:round;stroke-miterlimit:4;stroke-dasharray:none;stroke-opacity:1" />
          <path
             inkscape:connector-curvature="0"
             id="whitestripe"
             d="M 60,700 367,0 h 54 L 114,700 Z"
             style="opacity:1;fill:#ffffff;fill-opacity:1;fill-rule:nonzero;stroke:none;stroke-width:4;stroke-linecap:butt;stroke-linejoin:round;stroke-miterlimit:4;stroke-dasharray:none;stroke-opacity:1" />
          <path
             inkscape:connector-curvature="0"
             id="orangestripe"
             d="M 114,700 421,0 H 800 L 493,700 Z"
             style="opacity:1;fill:#ff6633;fill-opacity:1;fill-rule:nonzero;stroke:none;stroke-width:4;stroke-linecap:butt;stroke-linejoin:round;stroke-miterlimit:4;stroke-dasharray:none;stroke-opacity:1" />
        </g>
        <g
           id="g4698"
           transform="translate(0.1018982)">
          <g
             id="g4430">
            <circle
               r="134.31343"
               cy="227.98338"
               cx="402.94028"
               style="opacity:1;fill:#ffffff;fill-opacity:1;fill-rule:nonzero;stroke:#006699;stroke-width:7.19999981;stroke-linecap:butt;stroke-linejoin:miter;stroke-miterlimit:4;stroke-dasharray:none;stroke-opacity:1"
               id="path4038"
               transform="matrix(0.6935047,0,0,0.693506,170.57499,195.53196)" />
            <circle
               r="134.31343"
               cy="227.98338"
               cx="402.94028"
               style="display:inline;opacity:1;fill:#ffffff;fill-opacity:1;fill-rule:nonzero;stroke:#006699;stroke-width:9.30000019;stroke-linecap:butt;stroke-linejoin:miter;stroke-miterlimit:4;stroke-dasharray:none;stroke-opacity:1"
               id="path4040"
               transform="matrix(0.42901,0,0,0.42901,277.17845,256.14191)" />
          </g>
          <g
             id="g4362">
            <g
               id="g4082">
              <path
                 inkscape:connector-curvature="0"
                 sodipodi:nodetypes="czszccc"
                 id="path4043"
                 d="m 410.1095,326.94659 c 13.25782,6.01519 0.71609,33.57539 7.97502,48.61382 7.25891,15.03845 31.67111,12.86733 31.6711,19.91272 10e-6,-7.04539 24.41219,-4.87427 31.67111,-19.91272 7.25893,-15.03843 -5.2828,-42.59863 7.97502,-48.61382 h -39.64613 z"
                 style="display:inline;fill:#ffffff;fill-opacity:1;fill-rule:nonzero;stroke:#0c2465;stroke-width:1.29999995;stroke-linecap:butt;stroke-linejoin:round;stroke-miterlimit:4;stroke-dasharray:none;stroke-opacity:1" />
              <path
                 inkscape:connector-curvature="0"
                 sodipodi:nodetypes="ccccc"
                 id="path4045"
                 d="m 441.62991,349.47313 h 5.93044 v 42.84313 l -5.93044,-2.26481 z"
                 style="display:inline;fill:#ff6633;fill-opacity:1;fill-rule:nonzero;stroke:none;stroke-width:2;stroke-linecap:butt;stroke-linejoin:round;stroke-miterlimit:4;stroke-opacity:1" />
              <path
                 inkscape:connector-curvature="0"
                 sodipodi:nodetypes="ccccc"
                 id="path4047"
                 d="m 431.25811,349.94697 h 5.93044 v 38.99295 l -5.93044,-1.75524 z"
                 style="display:inline;fill:#ff6633;fill-opacity:1;fill-rule:nonzero;stroke:none;stroke-width:2;stroke-linecap:butt;stroke-linejoin:round;stroke-miterlimit:4;stroke-opacity:1" />
              <path
                 inkscape:connector-curvature="0"
                 sodipodi:nodetypes="ccccc"
                 id="path4049"
                 d="m 420.57043,349.47313 h 5.93043 v 34.85965 l -5.93043,-4.64286 z"
                 style="display:inline;fill:#ff6633;fill-opacity:1;fill-rule:nonzero;stroke:none;stroke-width:2;stroke-linecap:butt;stroke-linejoin:round;stroke-miterlimit:4;stroke-opacity:1" />
              <path
                 inkscape:connector-curvature="0"
                 sodipodi:nodetypes="ccccc"
                 id="path4051"
                 d="m 452.37307,349.47313 h 5.93044 v 40.57832 l -5.93044,2.26481 z"
                 style="display:inline;fill:#ff6633;fill-opacity:1;fill-rule:nonzero;stroke:none;stroke-width:2;stroke-linecap:butt;stroke-linejoin:round;stroke-miterlimit:4;stroke-opacity:1" />
              <path
                 inkscape:connector-curvature="0"
                 sodipodi:nodetypes="ccccc"
                 id="path4053"
                 d="m 462.84735,349.47313 h 5.93044 v 37.23771 l -5.93044,2.09495 z"
                 style="display:inline;fill:#ff6633;fill-opacity:1;fill-rule:nonzero;stroke:none;stroke-width:2;stroke-linecap:butt;stroke-linejoin:round;stroke-miterlimit:4;stroke-opacity:1" />
              <path
                 inkscape:connector-curvature="0"
                 sodipodi:nodetypes="ccccc"
                 id="path4055"
                 d="m 473.53504,349.47313 h 5.93044 v 30.33003 l -5.93044,4.92597 z"
                 style="display:inline;fill:#ff6633;fill-opacity:1;fill-rule:nonzero;stroke:none;stroke-width:2;stroke-linecap:butt;stroke-linejoin:round;stroke-miterlimit:4;stroke-opacity:1" />
              <path
                 inkscape:connector-curvature="0"
                 sodipodi:nodetypes="ccccc"
                 id="path4057"
                 d="m 416.17292,350.54538 h 67.17329 c -2.59621,-21.77566 6.05554,-23.59879 6.05554,-23.59879 H 410.1095 c 0,0 9.08064,3.82879 6.06342,23.59879 z"
                 style="fill:#006699;fill-opacity:1;fill-rule:nonzero;stroke:none;stroke-width:2;stroke-linecap:butt;stroke-linejoin:round;stroke-miterlimit:4;stroke-dasharray:none;stroke-opacity:1" />
              <path
                 inkscape:connector-curvature="0"
                 sodipodi:nodetypes="czszccc"
                 id="path4059"
                 d="m 410.1095,326.94659 c 13.25782,6.01519 0.71609,33.57539 7.97502,48.61382 7.25891,15.03845 31.67111,12.86733 31.6711,19.91272 10e-6,-7.04539 24.41219,-4.87427 31.67111,-19.91272 7.25893,-15.03843 -5.2828,-42.59863 7.97502,-48.61382 h -39.64613 z"
                 style="display:inline;fill:none;fill-opacity:1;fill-rule:nonzero;stroke:#006699;stroke-width:1.89999998;stroke-linecap:butt;stroke-linejoin:round;stroke-miterlimit:4;stroke-dasharray:none;stroke-opacity:1" />
            </g>
          </g>
          <g
             id="g4670">
            <path
               inkscape:connector-curvature="0"
               transform="rotate(-142.68158)"
               style="font-style:normal;font-variant:normal;font-weight:normal;font-stretch:normal;font-size:22px;line-height:125%;font-family:'Arial Black';-inkscape-font-specification:'Arial Black,';text-align:start;writing-mode:lr-tb;text-anchor:start;fill:#006699;fill-opacity:1;stroke:none;stroke-width:1px;stroke-linecap:butt;stroke-linejoin:miter;stroke-opacity:1"
               d="m -574.93982,-90.753548 h 4.85547 v 9.388672 c -2e-5,0.930995 -0.14683,1.811854 -0.44043,2.642578 -0.28647,0.823571 -0.74123,1.546878 -1.36426,2.169922 -0.6159,0.615887 -1.26401,1.049154 -1.94433,1.299805 -0.94533,0.350911 -2.08042,0.526367 -3.40528,0.526367 -0.76628,0 -1.60417,-0.05371 -2.51367,-0.161133 -0.90235,-0.107422 -1.65788,-0.318684 -2.2666,-0.633789 -0.60873,-0.322265 -1.16732,-0.777017 -1.67578,-1.364258 -0.50131,-0.587237 -0.84506,-1.192379 -1.03125,-1.815429 -0.30079,-1.0026 -0.45118,-1.89062 -0.45117,-2.664063 v -9.388672 h 4.85546 v 9.614258 c 0,0.85938 0.23633,1.532557 0.70899,2.019531 0.47981,0.479822 1.14224,0.71973 1.9873,0.719727 0.83788,3e-6 1.49316,-0.236325 1.96582,-0.708984 0.47981,-0.479814 0.71972,-1.156571 0.71973,-2.030274 v -9.614258"
               id="text4093" />
            <path
               inkscape:connector-curvature="0"
               transform="rotate(-133.21626)"
               style="font-style:normal;font-variant:normal;font-weight:normal;font-stretch:normal;font-size:21.99999619px;line-height:125%;font-family:'Arial Black';-inkscape-font-specification:'Arial Black,';text-align:start;writing-mode:lr-tb;text-anchor:start;display:inline;fill:#006699;fill-opacity:1;stroke:none;stroke-width:1px;stroke-linecap:butt;stroke-linejoin:miter;stroke-opacity:1"
               d="m -571.74005,3.4463261 h 4.54394 l 5.92969,8.7119129 V 3.4463261 h 4.58691 V 19.19437 h -4.58691 l -5.89746,-8.647459 v 8.647459 h -4.57617 V 3.4463261"
               id="text4108" />
            <path
               inkscape:connector-curvature="0"
               transform="rotate(-123.91412)"
               style="font-style:normal;font-variant:normal;font-weight:normal;font-stretch:normal;font-size:21.99999619px;line-height:125%;font-family:'Arial Black';-inkscape-font-specification:'Arial Black,';text-align:start;writing-mode:lr-tb;text-anchor:start;display:inline;fill:#006699;fill-opacity:1;stroke:none;stroke-width:1px;stroke-linecap:butt;stroke-linejoin:miter;stroke-opacity:1"
               d="m -543.08044,93.821505 h 4.87695 v 15.748045 h -4.87695 V 93.821505"
               id="text4112" />
            <path
               inkscape:connector-curvature="0"
               transform="rotate(-111.77199)"
               style="font-style:normal;font-variant:normal;font-weight:normal;font-stretch:normal;font-size:22px;line-height:125%;font-family:'Arial Black';-inkscape-font-specification:'Arial Black,';text-align:start;writing-mode:lr-tb;text-anchor:start;display:inline;fill:#006699;fill-opacity:1;stroke:none;stroke-width:1px;stroke-linecap:butt;stroke-linejoin:miter;stroke-opacity:1"
               d="m -501.77679,203.90207 h 14.79199 v 3.88867 h -4.96289 v 11.85938 h -4.86621 v -11.85938 h -4.96289 v -3.88867"
               id="text4120" />
            <path
               inkscape:connector-curvature="0"
               transform="rotate(-97.859496)"
               style="font-style:normal;font-variant:normal;font-weight:normal;font-stretch:normal;font-size:22px;line-height:125%;font-family:'Arial Black';-inkscape-font-specification:'Arial Black,';text-align:start;writing-mode:lr-tb;text-anchor:start;display:inline;fill:#006699;fill-opacity:1;stroke:none;stroke-width:1px;stroke-linecap:butt;stroke-linejoin:miter;stroke-opacity:1"
               d="m -419.06247,315.02454 h 13.04102 v 3.3623 h -8.16407 v 2.50293 h 7.57325 v 3.21191 h -7.57325 v 3.1045 h 8.40039 v 3.5664 h -13.27734 v -15.74804"
               id="text4124" />
            <path
               inkscape:connector-curvature="0"
               transform="rotate(-87.277952)"
               style="font-style:normal;font-variant:normal;font-weight:normal;font-stretch:normal;font-size:22px;line-height:125%;font-family:'Arial Black';-inkscape-font-specification:'Arial Black,';text-align:start;writing-mode:lr-tb;text-anchor:start;display:inline;fill:#006699;fill-opacity:1;stroke:none;stroke-width:1px;stroke-linecap:butt;stroke-linejoin:miter;stroke-opacity:1"
               d="m -335.84821,383.83112 h 7.2295 c 1.42512,10e-6 2.57453,0.19337 3.44824,0.58007 0.88084,0.38674 1.60773,0.94175 2.18066,1.66504 0.5729,0.72332 0.98827,1.56479 1.2461,2.52442 0.25779,0.95964 0.3867,1.97657 0.38672,3.05078 -2e-5,1.68295 -0.19338,2.98991 -0.58008,3.9209 -0.37958,0.92383 -0.90952,1.70085 -1.58985,2.33105 -0.68035,0.62305 -1.41082,1.03841 -2.1914,1.2461 -1.06707,0.28645 -2.03387,0.42968 -2.90039,0.42968 h -7.2295 v -15.74804 m 4.86622,3.5664 v 8.60449 h 1.19238 c 1.01692,1e-5 1.74022,-0.11099 2.16992,-0.333 0.42968,-0.22917 0.76627,-0.62305 1.00977,-1.18164 0.24347,-0.56575 0.36522,-1.47884 0.36523,-2.73926 -1e-5,-1.66861 -0.27215,-2.81086 -0.81641,-3.42676 -0.54428,-0.61587 -1.44662,-0.92382 -2.70703,-0.92383 h -1.21386"
               id="text4128" />
            <path
               inkscape:connector-curvature="0"
               transform="rotate(-65.202276)"
               style="font-style:normal;font-variant:normal;font-weight:normal;font-stretch:normal;font-size:22px;line-height:125%;font-family:'Arial Black';-inkscape-font-specification:'Arial Black,';text-align:start;writing-mode:lr-tb;text-anchor:start;display:inline;fill:#006699;fill-opacity:1;stroke:none;stroke-width:1px;stroke-linecap:butt;stroke-linejoin:miter;stroke-opacity:1"
               d="m -140.22617,484.70547 4.62989,-0.29003 c 0.10025,0.75195 0.30435,1.32487 0.6123,1.71875 0.5013,0.63737 1.21744,0.95605 2.14844,0.95605 0.69465,0 1.22818,-0.16113 1.60059,-0.4834 0.37954,-0.32942 0.56932,-0.70898 0.56933,-1.13867 -1e-5,-0.4082 -0.17905,-0.77343 -0.53711,-1.0957 -0.35808,-0.32226 -1.18881,-0.62662 -2.49219,-0.91309 -2.13412,-0.47981 -3.65592,-1.11718 -4.56543,-1.91211 -0.91666,-0.79491 -1.375,-1.80826 -1.375,-3.04004 0,-0.80923 0.23275,-1.57192 0.69825,-2.28808 0.47265,-0.7233 1.17805,-1.28905 2.11621,-1.69727 0.94531,-0.41535 2.23795,-0.62303 3.87793,-0.62305 2.01236,2e-5 3.54491,0.376 4.59765,1.12793 1.05989,0.74481 1.69009,1.93361 1.89063,3.56641 l -4.58692,0.26855 c -0.12175,-0.70897 -0.37956,-1.22459 -0.77343,-1.54687 -0.38673,-0.32225 -0.92384,-0.48339 -1.61133,-0.4834 -0.56576,10e-6 -0.99187,0.12176 -1.27832,0.36524 -0.28647,0.23634 -0.42969,0.52638 -0.42969,0.87011 0,0.25067 0.11816,0.47625 0.35449,0.67676 0.22916,0.20769 0.77343,0.40105 1.63282,0.58008 2.12694,0.45834 3.64875,0.92384 4.56543,1.39648 0.92381,0.46551 1.59341,1.04558 2.00878,1.74024 0.42252,0.69467 0.63378,1.47168 0.63379,2.33105 -1e-5,1.00977 -0.27931,1.94076 -0.83789,2.79297 -0.5586,0.85222 -1.3392,1.50033 -2.34179,1.94434 -1.00262,0.43685 -2.26662,0.65527 -3.792,0.65527 -2.67839,0 -4.5332,-0.51562 -5.56445,-1.54687 -1.03125,-1.03125 -1.61491,-2.3418 -1.75098,-3.93165"
               id="text4132" />
            <path
               inkscape:connector-curvature="0"
               transform="rotate(-51.593565)"
               style="font-style:normal;font-variant:normal;font-weight:normal;font-stretch:normal;font-size:22px;line-height:125%;font-family:'Arial Black';-inkscape-font-specification:'Arial Black,';text-align:start;writing-mode:lr-tb;text-anchor:start;display:inline;fill:#006699;fill-opacity:1;stroke:none;stroke-width:1px;stroke-linecap:butt;stroke-linejoin:miter;stroke-opacity:1"
               d="M -6.9351091,489.61819 H 7.856883 v 3.88868 H 2.8939924 v 11.85937 h -4.8662109 v -11.85937 h -4.9628906 v -3.88868"
               id="text4136" />
            <path
               inkscape:connector-curvature="0"
               transform="rotate(-41.966339)"
               style="font-style:normal;font-variant:normal;font-weight:normal;font-stretch:normal;font-size:21.99999619px;line-height:125%;font-family:'Arial Black';-inkscape-font-specification:'Arial Black,';text-align:start;writing-mode:lr-tb;text-anchor:start;display:inline;fill:#006699;fill-opacity:1;stroke:none;stroke-width:1px;stroke-linecap:butt;stroke-linejoin:miter;stroke-opacity:1"
               d="m 102.2287,494.29834 h -5.542963 l -0.762696,2.59961 h -4.973632 l 5.918945,-15.74804 h 5.306636 l 5.91895,15.74804 h -5.0918 l -0.77344,-2.59961 m -1.0205,-3.40527 -1.740237,-5.66113 -1.729492,5.66113 h 3.469729"
               id="text4140" />
            <path
               inkscape:connector-curvature="0"
               transform="rotate(-28.288581)"
               style="font-style:normal;font-variant:normal;font-weight:normal;font-stretch:normal;font-size:22.00000191px;line-height:125%;font-family:'Arial Black';-inkscape-font-specification:'Arial Black,';text-align:start;writing-mode:lr-tb;text-anchor:start;display:inline;fill:#006699;fill-opacity:1;stroke:none;stroke-width:1px;stroke-linecap:butt;stroke-linejoin:miter;stroke-opacity:1"
               d="m 220.64497,442.17169 h 14.792 v 3.88867 h -4.96289 v 11.85938 h -4.86622 v -11.85938 h -4.96289 v -3.88867"
               id="text4144" />
            <path
               inkscape:connector-curvature="0"
               transform="rotate(-14.621264)"
               style="font-style:normal;font-variant:normal;font-weight:normal;font-stretch:normal;font-size:22.00000191px;line-height:125%;font-family:'Arial Black';-inkscape-font-specification:'Arial Black,';text-align:start;writing-mode:lr-tb;text-anchor:start;display:inline;fill:#006699;fill-opacity:1;stroke:none;stroke-width:1px;stroke-linecap:butt;stroke-linejoin:miter;stroke-opacity:1"
               d="m 338.03613,372.90872 h 13.04102 v 3.36231 h -8.16406 v 2.50293 h 7.57324 v 3.21191 h -7.57324 v 3.10449 h 8.40039 v 3.56641 h -13.27735 v -15.74805"
               id="text4148" />
            <path
               inkscape:connector-curvature="0"
               transform="rotate(-4.1308815)"
               style="font-style:normal;font-variant:normal;font-weight:normal;font-stretch:normal;font-size:22px;line-height:125%;font-family:'Arial Black';-inkscape-font-specification:'Arial Black,';text-align:start;writing-mode:lr-tb;text-anchor:start;display:inline;fill:#006699;fill-opacity:1;stroke:none;stroke-width:1px;stroke-linecap:butt;stroke-linejoin:miter;stroke-opacity:1"
               d="m 417.17331,313.22958 4.62988,-0.29004 c 0.10026,0.75196 0.30436,1.32488 0.61231,1.71875 0.50129,0.63738 1.21744,0.95606 2.14843,0.95606 0.69466,0 1.22819,-0.16113 1.60059,-0.4834 0.37955,-0.32942 0.56933,-0.70898 0.56934,-1.13867 -10e-6,-0.4082 -0.17905,-0.77343 -0.53711,-1.0957 -0.35809,-0.32226 -1.18881,-0.62663 -2.49219,-0.91309 -2.13412,-0.47981 -3.65593,-1.11718 -4.56543,-1.91211 -0.91667,-0.79491 -1.375,-1.80826 -1.375,-3.04004 0,-0.80923 0.23275,-1.57193 0.69824,-2.28808 0.47266,-0.7233 1.17806,-1.28905 2.11621,-1.69727 0.94531,-0.41535 2.23795,-0.62303 3.87793,-0.62305 2.01236,2e-5 3.54491,0.376 4.59766,1.12793 1.05988,0.74481 1.69009,1.93361 1.89062,3.56641 l -4.58691,0.26855 c -0.12175,-0.70897 -0.37957,-1.22459 -0.77344,-1.54687 -0.38673,-0.32225 -0.92383,-0.48339 -1.61133,-0.4834 -0.56576,10e-6 -0.99186,0.12176 -1.27832,0.36523 -0.28646,0.23635 -0.42969,0.52638 -0.42968,0.87012 -10e-6,0.25066 0.11815,0.47625 0.35449,0.67676 0.22916,0.20769 0.77343,0.40105 1.63281,0.58008 2.12694,0.45834 3.64875,0.92384 4.56543,1.39648 0.92382,0.46551 1.59341,1.04558 2.00879,1.74024 0.42251,0.69466 0.63377,1.47168 0.63379,2.33105 -2e-5,1.00977 -0.27931,1.94076 -0.83789,2.79297 -0.55861,0.85222 -1.33921,1.50033 -2.3418,1.94434 -1.00261,0.43684 -2.26661,0.65527 -3.79199,0.65527 -2.67839,0 -4.53321,-0.51563 -5.56445,-1.54688 -1.03126,-1.03124 -1.61491,-2.34179 -1.75098,-3.93164"
               id="text4152" />
            <path
               inkscape:connector-curvature="0"
               transform="rotate(21.647793)"
               style="font-style:normal;font-variant:normal;font-weight:normal;font-stretch:normal;font-size:22px;line-height:125%;font-family:'Arial Black';-inkscape-font-specification:'Arial Black,';text-align:start;writing-mode:lr-tb;text-anchor:start;display:inline;fill:#006699;fill-opacity:1;stroke:none;stroke-width:1px;stroke-linecap:butt;stroke-linejoin:miter;stroke-opacity:1"
               d="m 544.2038,89.428078 4.26464,1.289062 c -0.28647,1.195968 -0.73764,2.19499 -1.35351,2.997071 -0.6159,0.802084 -1.38218,1.407227 -2.29883,1.815429 -0.90952,0.408203 -2.06967,0.612305 -3.48047,0.612305 -1.71159,0 -3.11166,-0.24707 -4.20019,-0.741211 -1.08139,-0.501301 -2.01596,-1.378579 -2.80371,-2.631836 -0.78777,-1.253251 -1.18165,-2.857416 -1.18164,-4.8125 -10e-6,-2.60676 0.69107,-4.608386 2.07324,-6.004883 1.38932,-1.40363 3.35155,-2.105453 5.88672,-2.105469 1.98371,1.6e-5 3.54132,0.401058 4.67285,1.203125 1.13866,0.802098 1.98371,2.033867 2.53515,3.695313 l -4.29687,0.956055 c -0.1504,-0.479807 -0.30796,-0.830719 -0.47266,-1.052735 -0.27214,-0.372384 -0.60515,-0.658842 -0.99902,-0.859375 -0.39389,-0.200508 -0.83432,-0.300769 -1.32129,-0.300781 -1.10287,1.2e-5 -1.94792,0.444022 -2.53516,1.332031 -0.44401,0.658865 -0.66602,1.693695 -0.66601,3.104492 -1e-5,1.747402 0.26497,2.946946 0.79492,3.598633 0.52994,0.644535 1.27473,0.966801 2.23438,0.966797 0.93098,4e-6 1.6328,-0.261389 2.10546,-0.78418 0.47981,-0.522781 0.82714,-1.281895 1.042,-2.277343"
               id="text4156" />
            <path
               inkscape:connector-curvature="0"
               transform="rotate(33.785336)"
               style="font-style:normal;font-variant:normal;font-weight:normal;font-stretch:normal;font-size:22px;line-height:125%;font-family:'Arial Black';-inkscape-font-specification:'Arial Black,';text-align:start;writing-mode:lr-tb;text-anchor:start;display:inline;fill:#006699;fill-opacity:1;stroke:none;stroke-width:1px;stroke-linecap:butt;stroke-linejoin:miter;stroke-opacity:1"
               d="m 557.78906,-30.896297 c 0,-2.570954 0.71615,-4.572579 2.14844,-6.004883 1.43229,-1.432277 3.42675,-2.148422 5.9834,-2.148438 2.62108,1.6e-5 4.64061,0.705419 6.05859,2.116211 1.41795,1.403659 2.12694,3.373058 2.12696,5.908203 -2e-5,1.840501 -0.31155,3.351567 -0.93457,4.533203 -0.61591,1.174482 -1.51109,2.091148 -2.68555,2.75 -1.16733,0.651693 -2.62469,0.977539 -4.37207,0.977539 -1.77605,0 -3.24773,-0.282877 -4.41504,-0.848632 -1.16016,-0.565754 -2.10189,-1.460936 -2.8252,-2.685547 -0.72331,-1.224605 -1.08496,-2.757156 -1.08496,-4.597656 m 4.86621,0.02148 c 0,1.58985 0.29362,2.732101 0.88086,3.426758 0.5944,0.694665 1.40006,1.041995 2.41699,1.041992 1.04557,3e-6 1.85481,-0.340166 2.42774,-1.020508 0.5729,-0.680333 0.85936,-1.901361 0.85937,-3.663086 -10e-6,-1.482412 -0.30079,-2.563791 -0.90234,-3.24414 -0.59441,-0.687488 -1.40366,-1.031238 -2.42773,-1.03125 -0.98113,1.2e-5 -1.76889,0.347342 -2.36328,1.041992 -0.59441,0.694672 -0.89161,1.844085 -0.89161,3.448242"
               id="text4287" />
            <path
               inkscape:connector-curvature="0"
               transform="rotate(43.215347)"
               style="font-style:normal;font-variant:normal;font-weight:normal;font-stretch:normal;font-size:21.99999619px;line-height:125%;font-family:'Arial Black';-inkscape-font-specification:'Arial Black,';text-align:start;writing-mode:lr-tb;text-anchor:start;display:inline;fill:#006699;fill-opacity:1;stroke:none;stroke-width:1px;stroke-linecap:butt;stroke-linejoin:miter;stroke-opacity:1"
               d="m 573.54376,-120.10996 h -5.54297 l -0.76269,2.59961 h -4.97363 l 5.91894,-15.74805 h 5.30664 l 5.91894,15.74805 h -5.09179 l -0.77344,-2.59961 m -1.02051,-3.40527 -1.74023,-5.66114 -1.72949,5.66114 h 3.46972"
               id="text4291" />
            <path
               inkscape:connector-curvature="0"
               transform="rotate(57.127501)"
               style="font-style:normal;font-variant:normal;font-weight:normal;font-stretch:normal;font-size:22px;line-height:125%;font-family:'Arial Black';-inkscape-font-specification:'Arial Black,';text-align:start;writing-mode:lr-tb;text-anchor:start;display:inline;fill:#006699;fill-opacity:1;stroke:none;stroke-width:1px;stroke-linecap:butt;stroke-linejoin:miter;stroke-opacity:1"
               d="m 533.37579,-258.45421 4.62989,-0.29004 c 0.10025,0.75196 0.30435,1.32488 0.6123,1.71875 0.5013,0.63738 1.21744,0.95606 2.14844,0.95606 0.69465,0 1.22818,-0.16113 1.60058,-0.4834 0.37955,-0.32942 0.56933,-0.70898 0.56934,-1.13867 -10e-6,-0.4082 -0.17905,-0.77344 -0.53711,-1.09571 -0.35808,-0.32226 -1.18881,-0.62662 -2.49219,-0.91308 -2.13412,-0.47981 -3.65592,-1.11718 -4.56543,-1.91211 -0.91666,-0.79491 -1.375,-1.80826 -1.375,-3.04004 0,-0.80923 0.23275,-1.57193 0.69825,-2.28809 0.47265,-0.72329 1.17805,-1.28904 2.11621,-1.69726 0.9453,-0.41535 2.23795,-0.62303 3.87793,-0.62305 2.01236,2e-5 3.54491,0.37599 4.59765,1.12793 1.05988,0.74481 1.69009,1.93361 1.89063,3.56641 l -4.58692,0.26855 c -0.12175,-0.70897 -0.37956,-1.2246 -0.77343,-1.54687 -0.38673,-0.32226 -0.92384,-0.48339 -1.61133,-0.4834 -0.56576,1e-5 -0.99187,0.12176 -1.27832,0.36523 -0.28647,0.23634 -0.4297,0.52638 -0.42969,0.87012 -10e-6,0.25066 0.11816,0.47625 0.35449,0.67676 0.22916,0.20769 0.77343,0.40105 1.63282,0.58008 2.12694,0.45834 3.64875,0.92383 4.56542,1.39648 0.92382,0.4655 1.59342,1.04558 2.00879,1.74023 0.42251,0.69467 0.63378,1.47169 0.63379,2.33106 -1e-5,1.00977 -0.27931,1.94076 -0.83789,2.79297 -0.55861,0.85221 -1.3392,1.50032 -2.34179,1.94433 -1.00262,0.43685 -2.26662,0.65528 -3.792,0.65528 -2.67839,0 -4.5332,-0.51563 -5.56445,-1.54688 -1.03125,-1.03125 -1.61491,-2.34179 -1.75098,-3.93164"
               id="text4295" />
            <path
               inkscape:connector-curvature="0"
               transform="rotate(71.781599)"
               style="font-style:normal;font-variant:normal;font-weight:normal;font-stretch:normal;font-size:22px;line-height:125%;font-family:'Arial Black';-inkscape-font-specification:'Arial Black,';text-align:start;writing-mode:lr-tb;text-anchor:start;display:inline;fill:#006699;fill-opacity:1;stroke:none;stroke-width:1px;stroke-linecap:butt;stroke-linejoin:miter;stroke-opacity:1"
               d="m 466.17355,-399.83627 h 14.792 v 3.88867 h -4.96289 v 11.85937 h -4.86622 v -11.85937 h -4.96289 v -3.88867"
               id="text4299" />
            <path
               inkscape:connector-curvature="0"
               transform="rotate(90)"
               style="font-style:normal;font-variant:normal;font-weight:normal;font-stretch:normal;font-size:22px;line-height:125%;font-family:'Arial Black';-inkscape-font-specification:'Arial Black,';text-align:start;writing-mode:lr-tb;text-anchor:start;display:inline;fill:#006699;fill-opacity:1;stroke:none;stroke-width:1px;stroke-linecap:butt;stroke-linejoin:miter;stroke-opacity:1"
               d="m 352.70386,-522.53754 v -3.27636 h 7.51953 v 6.71386 c -1.43947,0.98112 -2.71421,1.65072 -3.82422,2.00879 -1.10288,0.35091 -2.41342,0.52637 -3.93164,0.52637 -1.86915,0 -3.39454,-0.31869 -4.57617,-0.95606 -1.17449,-0.63736 -2.08757,-1.58626 -2.73926,-2.84667 -0.64453,-1.26042 -0.9668,-2.70703 -0.9668,-4.33985 0,-1.71874 0.35449,-3.2119 1.06348,-4.47949 0.70898,-1.27473 1.74739,-2.24152 3.11523,-2.90039 1.06705,-0.50845 2.50293,-0.76268 4.30762,-0.7627 1.74022,2e-5 3.04003,0.15757 3.89941,0.47266 0.86653,0.31512 1.58267,0.80568 2.14844,1.47168 0.5729,0.65887 1.00259,1.49676 1.28906,2.51367 l -4.69433,0.83789 c -0.19337,-0.59439 -0.5228,-1.04914 -0.98828,-1.36426 -0.45835,-0.31509 -1.04559,-0.47264 -1.76172,-0.47265 -1.06707,10e-6 -1.91928,0.37241 -2.55664,1.11719 -0.63022,0.73764 -0.94532,1.90853 -0.94531,3.51269 -10e-6,1.70443 0.31867,2.92188 0.95605,3.65234 0.64452,0.73048 1.53971,1.09571 2.68555,1.09571 0.54426,0 1.06346,-0.0788 1.55761,-0.23633 0.49413,-0.15755 1.05989,-0.4261 1.69727,-0.80566 v -1.48243 h -3.25488"
               id="text4303" />
            <path
               inkscape:connector-curvature="0"
               transform="rotate(104.48893)"
               style="font-style:normal;font-variant:normal;font-weight:normal;font-stretch:normal;font-size:22px;line-height:125%;font-family:'Arial Black';-inkscape-font-specification:'Arial Black,';text-align:start;writing-mode:lr-tb;text-anchor:start;display:inline;fill:#006699;fill-opacity:1;stroke:none;stroke-width:1px;stroke-linecap:butt;stroke-linejoin:miter;stroke-opacity:1"
               d="m 231.76518,-606.84967 h 4.85547 v 9.38867 c -2e-5,0.931 -0.14683,1.81185 -0.44043,2.64258 -0.28647,0.82357 -0.74122,1.54688 -1.36426,2.16992 -0.6159,0.61589 -1.26401,1.04916 -1.94433,1.29981 -0.94533,0.35091 -2.08042,0.52636 -3.40528,0.52636 -0.76628,0 -1.60417,-0.0537 -2.51367,-0.16113 -0.90235,-0.10742 -1.65788,-0.31868 -2.2666,-0.63379 -0.60873,-0.32226 -1.16732,-0.77702 -1.67578,-1.36426 -0.50131,-0.58723 -0.84505,-1.19238 -1.03125,-1.81543 -0.30078,-1.0026 -0.45117,-1.89062 -0.45117,-2.66406 v -9.38867 h 4.85547 v 9.61426 c -1e-5,0.85938 0.23632,1.53255 0.70898,2.01953 0.47981,0.47982 1.14225,0.71973 1.98731,0.71973 0.83788,0 1.49315,-0.23633 1.96582,-0.70899 0.4798,-0.47981 0.71971,-1.15657 0.71972,-2.03027 v -9.61426"
               id="text4307" />
            <path
               inkscape:connector-curvature="0"
               transform="rotate(118.47208)"
               style="font-style:normal;font-variant:normal;font-weight:normal;font-stretch:normal;font-size:21.99999619px;line-height:125%;font-family:'Arial Black';-inkscape-font-specification:'Arial Black,';text-align:start;writing-mode:lr-tb;text-anchor:start;display:inline;fill:#006699;fill-opacity:1;stroke:none;stroke-width:1px;stroke-linecap:butt;stroke-linejoin:miter;stroke-opacity:1"
               d="m 97.891973,-633.80096 h -5.542967 l -0.762696,2.59961 h -4.973631 l 5.918944,-15.74805 h 5.30664 l 5.918947,15.74805 h -5.091799 l -0.773438,-2.59961 m -1.020507,-3.40528 -1.740234,-5.66113 -1.729492,5.66113 h 3.469726"
               id="text4311" />
            <path
               inkscape:connector-curvature="0"
               transform="rotate(131.6595)"
               style="font-style:normal;font-variant:normal;font-weight:normal;font-stretch:normal;font-size:21.99999619px;line-height:125%;font-family:'Arial Black';-inkscape-font-specification:'Arial Black,';text-align:start;writing-mode:lr-tb;text-anchor:start;display:inline;fill:#006699;fill-opacity:1;stroke:none;stroke-width:1px;stroke-linecap:butt;stroke-linejoin:miter;stroke-opacity:1"
               d="m -42.628411,-638.30981 v -15.74805 h 8.110351 c 1.503894,2e-5 2.653307,0.12892 3.448241,0.38672 0.794908,0.25783 1.435858,0.73764 1.922851,1.43945 0.486964,0.69468 0.730453,1.54331 0.730469,2.5459 -1.6e-5,0.87371 -0.186214,1.62924 -0.558594,2.2666 -0.37241,0.63022 -0.884454,1.14226 -1.536132,1.53613 -0.415378,0.25066 -0.984713,0.45835 -1.708008,0.62305 0.580066,0.19337 1.002591,0.38673 1.267578,0.58008 0.179023,0.12891 0.436835,0.40463 0.773438,0.82715 0.343735,0.42253 0.572901,0.74837 0.687499,0.97754 l 2.352539,4.56543 h -5.499999 l -2.599609,-4.8125 c -0.329436,-0.62304 -0.623055,-1.02767 -0.880859,-1.21387 -0.350919,-0.24348 -0.74838,-0.36523 -1.192383,-0.36523 h -0.429687 v 6.3916 h -4.887695 m 4.887695,-9.36719 h 2.051757 c 0.221997,10e-6 0.651684,-0.0716 1.289063,-0.21484 0.322255,-0.0644 0.583648,-0.22916 0.784179,-0.49414 0.207671,-0.26497 0.311513,-0.56933 0.311524,-0.91309 -1.1e-5,-0.50845 -0.161144,-0.89875 -0.483399,-1.1709 -0.322276,-0.27212 -0.927418,-0.40819 -1.815429,-0.4082 h -2.137695 v 3.20117"
               id="text4315" />
            <path
               inkscape:connector-curvature="0"
               transform="rotate(142.83357)"
               style="font-style:normal;font-variant:normal;font-weight:normal;font-stretch:normal;font-size:22.00000381px;line-height:125%;font-family:'Arial Black';-inkscape-font-specification:'Arial Black,';text-align:start;writing-mode:lr-tb;text-anchor:start;display:inline;fill:#006699;fill-opacity:1;stroke:none;stroke-width:1px;stroke-linecap:butt;stroke-linejoin:miter;stroke-opacity:1"
               d="m -149.11649,-636.39856 h 7.2295 c 1.42512,10e-6 2.57453,0.19337 3.44824,0.58008 0.88085,0.38673 1.60773,0.94174 2.18067,1.66504 0.5729,0.72332 0.98826,1.56479 1.24609,2.52441 0.2578,0.95965 0.3867,1.97657 0.38672,3.05078 -2e-5,1.68295 -0.19338,2.98992 -0.58008,3.9209 -0.37957,0.92383 -0.90952,1.70085 -1.58984,2.33106 -0.68036,0.62304 -1.41082,1.03841 -2.19141,1.24609 -1.06707,0.28646 -2.03387,0.42969 -2.90039,0.42969 h -7.2295 v -15.74805 m 4.86622,3.5664 v 8.6045 h 1.19238 c 1.01692,0 1.74022,-0.111 2.16992,-0.33301 0.42968,-0.22916 0.76627,-0.62304 1.00977,-1.18164 0.24348,-0.56575 0.36522,-1.47884 0.36523,-2.73926 -1e-5,-1.66861 -0.27214,-2.81086 -0.8164,-3.42676 -0.54429,-0.61587 -1.44663,-0.92381 -2.70704,-0.92383 h -1.21386"
               id="text4319" />
            <path
               inkscape:connector-curvature="0"
               transform="rotate(10.822148)"
               style="font-style:normal;font-variant:normal;font-weight:normal;font-stretch:normal;font-size:18px;line-height:125%;font-family:'Arial Black';-inkscape-font-specification:'Arial Black,';text-align:start;writing-mode:lr-tb;text-anchor:start;display:inline;fill:#006699;fill-opacity:1;stroke:none;stroke-width:1px;stroke-linecap:butt;stroke-linejoin:miter;stroke-opacity:1"
               d="m 507.68805,333.11588 v 13.10449 h -3.62109 v -8.58692 c -0.58595,0.44532 -1.15431,0.80568 -1.70508,1.08106 -0.54493,0.2754 -1.23047,0.53907 -2.05664,0.79101 v -2.93554 c 1.21874,-0.39257 2.16503,-0.86425 2.83886,-1.41504 0.67383,-0.55077 1.20117,-1.23046 1.58204,-2.03906 h 2.96191"
               id="text4323" />
            <path
               inkscape:connector-curvature="0"
               transform="rotate(2.2178481)"
               style="font-style:normal;font-variant:normal;font-weight:normal;font-stretch:normal;font-size:18px;line-height:125%;font-family:'Arial Black';-inkscape-font-specification:'Arial Black,';text-align:start;writing-mode:lr-tb;text-anchor:start;display:inline;fill:#006699;fill-opacity:1;stroke:none;stroke-width:1px;stroke-linecap:butt;stroke-linejoin:miter;stroke-opacity:1"
               d="m 454.8309,406.1445 h 10.4502 v 2.41699 c -0.90822,0.82033 -1.667,1.70802 -2.27637,2.66309 -0.73829,1.16016 -1.3213,2.45215 -1.74902,3.87598 -0.33985,1.10742 -0.56837,2.41699 -0.68555,3.92871 h -3.56836 c 0.28125,-2.10352 0.72363,-3.86719 1.32715,-5.29102 0.60351,-1.42382 1.55859,-2.94726 2.86523,-4.57031 h -6.36328 v -3.02344"
               id="text4327" />
            <path
               inkscape:connector-curvature="0"
               transform="rotate(-4.9300143)"
               style="font-style:normal;font-variant:normal;font-weight:normal;font-stretch:normal;font-size:18px;line-height:125%;font-family:'Arial Black';-inkscape-font-specification:'Arial Black,';text-align:start;writing-mode:lr-tb;text-anchor:start;display:inline;fill:#006699;fill-opacity:1;stroke:none;stroke-width:1px;stroke-linecap:butt;stroke-linejoin:miter;stroke-opacity:1"
               d="m 413.26224,470.98077 3.55957,-0.44824 c 0.0937,0.49805 0.25195,0.84961 0.47461,1.05469 0.22265,0.20508 0.49511,0.30762 0.81738,0.30762 0.57421,0 1.02245,-0.29004 1.34473,-0.87012 0.23436,-0.42773 0.41015,-1.333 0.52734,-2.71582 -0.42774,0.43946 -0.86719,0.76172 -1.31836,0.9668 -0.45118,0.20508 -0.97266,0.30762 -1.56445,0.30761 -1.1543,1e-5 -2.12989,-0.41015 -2.92676,-1.23047 -0.79102,-0.8203 -1.18652,-1.85741 -1.18652,-3.11132 0,-0.85546 0.20214,-1.63476 0.60644,-2.33789 0.4043,-0.70312 0.96094,-1.23339 1.66992,-1.59082 0.70898,-0.36327 1.59961,-0.54491 2.67188,-0.54493 1.28905,2e-5 2.32323,0.22267 3.10254,0.66797 0.77929,0.43947 1.40038,1.14259 1.86328,2.10938 0.46874,0.96094 0.70311,2.23243 0.70312,3.81445 -1e-5,2.32618 -0.48926,4.03125 -1.46777,5.11523 -0.97852,1.07813 -2.33497,1.61719 -4.06934,1.61719 -1.02539,0 -1.83398,-0.11719 -2.42578,-0.35156 -0.5918,-0.24023 -1.08398,-0.58887 -1.47656,-1.0459 -0.39258,-0.45703 -0.69434,-1.02832 -0.90527,-1.71387 m 6.59179,-5.74804 c 0,-0.69726 -0.17578,-1.24218 -0.52734,-1.63477 -0.35157,-0.39843 -0.7793,-0.59764 -1.2832,-0.59765 -0.47462,10e-6 -0.87012,0.17872 -1.18653,0.53613 -0.31055,0.35743 -0.46582,0.89356 -0.46582,1.6084 0,0.72071 0.16113,1.27149 0.4834,1.65234 0.32812,0.38087 0.73535,0.5713 1.22168,0.57129 0.5039,10e-6 0.92285,-0.18456 1.25684,-0.55371 0.33397,-0.36913 0.50097,-0.89648 0.50097,-1.58203"
               id="text4335" />
            <path
               inkscape:connector-curvature="0"
               transform="rotate(-7.5890526)"
               style="font-style:normal;font-variant:normal;font-weight:normal;font-stretch:normal;font-size:18px;line-height:125%;font-family:'Arial Black';-inkscape-font-specification:'Arial Black,';text-align:start;writing-mode:lr-tb;text-anchor:start;display:inline;fill:#006699;fill-opacity:1;stroke:none;stroke-width:1px;stroke-linecap:butt;stroke-linejoin:miter;stroke-opacity:1"
               d="m 404.14673,486.48557 c 0,-2.44921 0.43945,-4.16308 1.31836,-5.14161 0.88476,-0.9785 2.22949,-1.46776 4.03418,-1.46777 0.86718,10e-6 1.57909,0.10841 2.13574,0.3252 0.55663,0.21095 1.01073,0.48927 1.3623,0.83496 0.35156,0.33985 0.62695,0.7002 0.82618,1.08105 0.20506,0.37501 0.36913,0.81446 0.49218,1.31836 0.24023,0.96095 0.36034,1.9629 0.36036,3.00586 -2e-5,2.33789 -0.39552,4.04883 -1.18653,5.13281 -0.79102,1.08399 -2.15333,1.62598 -4.08691,1.62598 -1.08399,0 -1.95997,-0.17285 -2.62793,-0.51856 -0.66797,-0.3457 -1.21582,-0.85253 -1.64356,-1.5205 -0.31054,-0.47461 -0.55371,-1.12207 -0.72949,-1.94239 -0.16992,-0.82616 -0.25488,-1.7373 -0.25488,-2.73339 m 3.55078,0.009 c 0,1.64063 0.14355,2.7627 0.43066,3.36622 0.29297,0.59765 0.71484,0.89648 1.26563,0.89648 0.36327,0 0.67675,-0.12597 0.94043,-0.37793 0.26952,-0.25781 0.46581,-0.66211 0.58887,-1.21289 0.12889,-0.55078 0.19335,-1.40918 0.19336,-2.5752 -1e-5,-1.71093 -0.1465,-2.85936 -0.43946,-3.44531 -0.28711,-0.59179 -0.72071,-0.88768 -1.30078,-0.88769 -0.5918,1e-5 -1.01954,0.30176 -1.2832,0.90527 -0.26368,0.59767 -0.39551,1.70802 -0.39551,3.33105"
               id="text4339" />
          </g>
        </g>
        <g
           id="g4349"
           transform="translate(0,-0.462948)">
          <circle
             r="29.533543"
             cy="123.7633"
             cx="394.78513"
             transform="matrix(0.3852567,-0.3852566,0.3852567,0.3852566,150.27454,362.3021)"
             id="path4039"
             style="display:inline;opacity:1;fill:none;fill-opacity:1;fill-rule:nonzero;stroke:#006699;stroke-width:40.5;stroke-linecap:butt;stroke-linejoin:miter;stroke-miterlimit:4;stroke-dasharray:none;stroke-opacity:1" />
          <circle
             r="29.533543"
             cy="123.7633"
             cx="394.78513"
             transform="matrix(0.3941489,-0.3941489,0.3941489,0.3941489,145.84915,364.89776)"
             id="path4017"
             style="display:inline;opacity:1;fill:none;fill-opacity:1;fill-rule:nonzero;stroke:#ffffff;stroke-width:22;stroke-linecap:butt;stroke-linejoin:miter;stroke-miterlimit:4;stroke-dasharray:none;stroke-opacity:1" />
          <path
             inkscape:connector-curvature="0"
             sodipodi:nodetypes="cccccccccccccccc"
             id="path4028"
             d="m 508.44661,430.19476 11.81293,12.53613 c 10.28044,14.54497 -22.79383,25.48015 -18.17765,21.07895 -0.12113,0.21535 1.83177,-6.51272 5.56759,-14.04919 -15.71663,6.73318 -36.90466,13.90677 -51.92189,8.81044 7.63473,22.119 28.34041,37.12471 28.34041,37.12471 l 9.02809,-13.87159 c 47.10547,6.41944 29.05116,-20.37001 70.91713,-15.58144 -4.26453,-45.01442 16.59389,-21.00863 15.96212,-75.34183 l 14.37303,-10.74028 c -10.1085,-17.53194 -37.67225,-26.63756 -43.59292,-25.27125 10.10851,21.9544 4.26453,38.38071 -1.89534,52.43785 6.7067,-3.60494 11.8459,-6.31782 11.8459,-6.31782 0.63178,15.63659 -9.03592,19.4023 -12.95152,21.00674 -7.58138,-5.68604 -16.42632,-16.90016 -16.42632,-16.90016 0,0 -15.14224,17.65531 -22.88156,25.07874 z"
             style="display:inline;opacity:1;fill:#ffffff;fill-opacity:1;fill-rule:nonzero;stroke:#006699;stroke-width:5;stroke-linecap:butt;stroke-linejoin:round;stroke-miterlimit:4;stroke-dasharray:none;stroke-opacity:1" />
          <path
             inkscape:connector-curvature="0"
             sodipodi:nodetypes="ccccc"
             id="path4054"
             d="m 315.73276,316.19279 18.24269,18.24269 95.47797,-89.94988 -16.34735,-16.97913 z"
             style="opacity:1;fill:#ffffff;fill-opacity:1;fill-rule:nonzero;stroke:#006699;stroke-width:5;stroke-linecap:butt;stroke-linejoin:miter;stroke-miterlimit:4;stroke-dasharray:none;stroke-opacity:1" />
        </g>
        <use
           x="0"
           y="0"
           xlink:href="#g4349"
           id="use4355"
           transform="matrix(-1,0,0,1,900.23575,-1.9855595e-6)"
           width="800"
           height="700" />
      </g>
    </g>
  </g>
</svg>
